<svg width="74" height="72" viewBox="0 0 74 72" fill="none" xmlns="http://www.w3.org/2000/svg">
<path d="M21.147 32.936C19.964 31.63 19.352 29.991 19.355 28.34C19.352 26.689 19.963 25.05 21.147 23.744L33.008 11.883C35.683 9.20799 35.683 4.86999 33.008 2.19399C30.333 -0.481006 25.995 -0.481006 23.319 2.19399L2.15203 23.362C2.10503 23.406 2.05102 23.436 2.00502 23.482C0.664023 24.823 -0.00398214 26.582 1.7857e-05 28.34C-0.00398214 30.098 0.664023 31.857 2.00502 33.198C2.05102 33.244 2.10503 33.274 2.15203 33.318L23.32 54.486C25.995 57.161 30.333 57.161 33.009 54.486C35.684 51.811 35.684 47.473 33.009 44.797L21.147 32.936Z" fill="#FF9A28"/>
<path d="M52.0382 48.2551C53.2212 46.9491 53.8332 45.3101 53.8302 43.6591C53.8332 42.0081 53.2222 40.3691 52.0382 39.0631L40.1771 27.2021C37.5021 24.5271 37.5021 20.1891 40.1771 17.5141C42.8521 14.8391 47.1901 14.8391 49.8661 17.5141L71.0341 38.6821C71.0811 38.7261 71.1351 38.7561 71.1811 38.8021C72.5221 40.1431 73.1902 41.9021 73.1861 43.6601C73.1902 45.4181 72.5221 47.1771 71.1811 48.5181C71.1351 48.5641 71.0811 48.5941 71.0341 48.6381L49.8661 69.8061C47.1911 72.4811 42.8531 72.4811 40.1771 69.8061C37.5021 67.1311 37.5021 62.7931 40.1771 60.1181L52.0382 48.2551Z" fill="#3B32FF"/>
</svg>
