<svg width="80" height="81" viewBox="0 0 80 81" fill="none" xmlns="http://www.w3.org/2000/svg">
<g id="desktop_3159389 1" clip-path="url(#clip0_78_1242)">
<path id="Vector" d="M38.1265 0.0148926H41.8844C43.4604 0.180518 44.7281 0.849788 45.6875 2.02271C46.6469 3.19771 46.9297 4.51958 46.8969 6.13052C46.8802 7.00031 46.8807 7.86958 46.8984 8.73833C46.8988 8.75835 46.9056 8.77773 46.9176 8.79372C46.9297 8.80971 46.9465 8.82149 46.9656 8.82739C48.2916 9.24927 49.5213 9.75968 50.6547 10.3586C50.6808 10.3725 50.7108 10.3776 50.7401 10.3731C50.7693 10.3686 50.7964 10.3548 50.8172 10.3336C51.6172 9.52635 52.3479 8.7951 53.0094 8.13989C54.5333 6.62635 56.325 6.12166 58.3844 6.62583C59.8297 6.98052 60.7468 7.94146 61.8062 9.01177C62.4406 9.65239 63.013 10.2623 63.5234 10.8415C63.5588 10.8821 63.6031 10.9024 63.6562 10.9024C66.6604 10.9024 69.6557 10.9024 72.6422 10.9024C75.0557 10.9024 76.9406 11.7623 78.2969 13.4821C79.3187 14.779 79.8297 16.2545 79.8297 17.9086C79.8317 30.5066 79.8317 42.5857 79.8297 54.1461C79.8297 56.3066 79.1286 58.0519 77.7265 59.3821C76.3588 60.6779 74.7276 61.3269 72.8328 61.329C63.8661 61.3362 54.8927 61.3362 45.9125 61.329C45.9052 61.329 45.8981 61.3307 45.8916 61.3338C45.8851 61.3369 45.8795 61.3415 45.8751 61.3471C45.8707 61.3527 45.8677 61.3592 45.8663 61.3661C45.8649 61.373 45.8652 61.38 45.8672 61.3868L47.8875 68.6399C47.8948 68.6649 47.9109 68.6774 47.9359 68.6774C49.0692 68.7014 50.2156 68.7019 51.375 68.679C52.5896 68.654 53.4786 68.7269 54.0422 68.8977C56.2562 69.5696 57.714 71.5508 57.7156 73.8727C57.7156 74.7883 57.7156 75.7732 57.7156 76.8274C57.7156 76.8444 57.7222 76.8607 57.7339 76.8727C57.7456 76.8847 57.7615 76.8915 57.7781 76.8915C59.6156 76.8883 61.4614 76.8883 63.3156 76.8915C65.3984 76.8946 65.6172 79.6493 63.6297 80.0149H16.35C15.4948 79.7961 15.0474 79.3081 15.0078 78.5508C14.9547 77.5149 15.7187 76.8836 16.6906 76.8868C18.6844 76.892 20.5187 76.892 22.1937 76.8868C22.2583 76.8868 22.2901 76.8545 22.289 76.7899C22.2807 75.8003 22.2807 74.7852 22.289 73.7446C22.3047 71.4696 23.8422 69.5243 25.9953 68.8868C26.539 68.7263 27.3646 68.6566 28.4719 68.6774C29.7104 68.7014 30.9099 68.7019 32.0703 68.679C32.0793 68.6786 32.0879 68.6754 32.095 68.6697C32.102 68.6641 32.107 68.6564 32.1094 68.6477L34.1265 61.4118C34.1292 61.402 34.1295 61.3917 34.1276 61.3818C34.1256 61.3718 34.1213 61.3624 34.1151 61.3544C34.1089 61.3464 34.1009 61.3399 34.0918 61.3355C34.0827 61.3311 34.0726 61.3288 34.0625 61.329C24.6916 61.3383 15.7062 61.3373 7.10623 61.3258C5.29685 61.3237 3.713 60.7008 2.35467 59.4571C0.898418 58.1217 0.169772 56.3451 0.16873 54.1274C0.166647 41.9972 0.167168 29.9326 0.170293 17.9336C0.171335 16.168 0.71248 14.6461 1.79373 13.368C3.1854 11.7243 5.02186 10.9014 7.30311 10.8993C10.35 10.8972 13.3578 10.8998 16.3265 10.9071C16.3828 10.9071 16.4297 10.8862 16.4672 10.8446C17.6495 9.53208 18.6703 8.50083 19.5297 7.75083C21.6484 5.89927 24.8359 6.01177 26.8515 8.00239C27.6297 8.77114 28.4067 9.54927 29.1828 10.3368C29.2286 10.3836 29.2807 10.392 29.339 10.3618C30.4807 9.75864 31.7135 9.24875 33.0375 8.83208C33.0595 8.82532 33.0786 8.81161 33.0922 8.79302C33.1057 8.77442 33.1128 8.75194 33.1125 8.72896C33.0989 7.5175 33.1026 6.33885 33.1234 5.19302C33.1328 4.62323 33.2385 4.07739 33.4406 3.55552C34.2265 1.52583 35.9359 0.261768 38.1265 0.0148926ZM19.1453 34.6727C19.9469 34.6836 20.4656 35.2758 20.6547 36.0008C21.1224 37.8071 21.7958 39.4383 22.675 40.8946C23.1109 41.6165 23.1484 42.4071 22.5406 43.0227C21.5781 43.9998 20.5521 45.0243 19.4625 46.0961C19.0547 46.4993 18.7578 46.9602 18.6875 47.5336C18.6868 47.5392 18.6873 47.5447 18.689 47.55C18.6907 47.5553 18.6934 47.5602 18.6971 47.5643C18.7008 47.5685 18.7054 47.5718 18.7104 47.574C18.7155 47.5763 18.721 47.5774 18.7265 47.5774H61.2484C61.2562 47.5774 61.2639 47.5758 61.2711 47.5728C61.2782 47.5697 61.2847 47.5653 61.2899 47.5597C61.2952 47.5541 61.2993 47.5475 61.3018 47.5404C61.3043 47.5332 61.3053 47.5256 61.3047 47.518C61.2578 46.8774 60.8047 46.3399 60.35 45.9055C59.3239 44.9274 58.3484 43.9534 57.4234 42.9836C56.9265 42.4633 56.8609 41.6774 57.2297 41.0743C58.1213 39.6149 58.8479 37.8691 59.4094 35.8368C59.639 35.0071 60.2844 34.6586 61.0875 34.6586C62.5135 34.6597 63.9182 34.6628 65.3015 34.668C66.9047 34.6743 67.8062 33.5446 67.764 32.0071C67.7442 31.306 67.7453 30.5987 67.7672 29.8852C67.8047 28.7243 67.4312 27.7899 66.3468 27.3071C66.0375 27.1696 65.5245 27.1055 64.8078 27.1149C63.4911 27.1326 62.2099 27.1357 60.964 27.1243C60.1265 27.1165 59.5625 26.6196 59.3578 25.8243C58.9078 24.0691 58.2021 22.3722 57.2406 20.7336C56.8781 20.1165 56.9078 19.3243 57.4297 18.7977C58.4432 17.7737 59.4833 16.7347 60.55 15.6805C61.2953 14.943 61.5828 13.9258 61.1265 12.9774C60.9682 12.6461 60.6755 12.28 60.2484 11.879C59.7474 11.4092 59.262 10.9232 58.7922 10.4211C57.7859 9.34458 56.314 9.23833 55.2484 10.3149C54.1505 11.4232 53.1198 12.455 52.1562 13.4102C51.5344 14.0243 50.7672 14.0196 50.0453 13.5915C48.4911 12.6706 46.7948 11.9727 44.9562 11.4977C44.0156 11.254 43.7469 10.4915 43.7515 9.56021C43.7578 8.43729 43.7677 7.37323 43.7812 6.36802C43.7906 5.54093 43.737 4.96802 43.6203 4.64927C43.3818 3.99823 42.9401 3.54823 42.2953 3.29927C41.9588 3.16906 41.4156 3.11229 40.6656 3.12896C40.1323 3.14041 39.5698 3.13989 38.9781 3.12739C38.3833 3.11489 37.926 3.18573 37.6062 3.33989C36.6864 3.7826 36.2281 4.52843 36.2312 5.57739C36.2364 7.10343 36.2359 8.5701 36.2297 9.97739C36.2265 10.6727 35.7453 11.3258 35.0672 11.4946C33.3005 11.9331 31.5583 12.6508 29.8406 13.6477C29.1781 14.0336 28.4109 13.9743 27.8594 13.4258C26.8177 12.3915 25.776 11.3493 24.7344 10.2993C23.9906 9.54927 22.9062 9.32114 21.9719 9.83052C21.6416 10.0107 21.2942 10.3003 20.9297 10.6993C20.5838 11.0774 20.2088 11.4534 19.8047 11.8274C18.8734 12.6868 18.3281 13.654 18.8547 14.8446C18.9922 15.155 19.2422 15.4868 19.6047 15.8399C20.6036 16.8139 21.5963 17.8066 22.5828 18.818C23.0781 19.3258 23.125 20.104 22.7734 20.7008C21.814 22.3248 21.0896 24.0706 20.6 25.9383C20.3734 26.8071 19.6984 27.1243 18.8281 27.1321C17.5646 27.1456 16.338 27.1389 15.1484 27.1118C14.5255 27.0972 14.0443 27.1586 13.7047 27.2961C12.9901 27.5826 12.5344 28.0904 12.3375 28.8196C12.1328 29.5821 12.275 30.5665 12.2406 31.3852C12.1812 32.779 12.3422 33.8915 13.6203 34.4633C13.9495 34.6112 14.4067 34.6805 14.9922 34.6711C16.287 34.6514 17.6713 34.6519 19.1453 34.6727ZM14.45 37.779C12.0781 37.7524 10.089 36.2008 9.36873 33.9836C9.1854 33.4191 9.09946 32.7284 9.11092 31.9118C9.12029 31.2284 9.12238 30.5139 9.11717 29.768C9.10779 28.3946 9.40936 27.2102 10.189 26.1961C11.289 24.7628 12.75 24.0326 14.5719 24.0055C15.5979 23.9899 16.675 23.9904 17.8031 24.0071C17.8708 24.0081 17.9146 23.9769 17.9344 23.9133C18.3541 22.6092 18.8635 21.3816 19.4625 20.2305C19.4739 20.2086 19.4782 20.1838 19.4748 20.1597C19.4714 20.1356 19.4606 20.1133 19.4437 20.0961C18.8604 19.4909 18.2531 18.8842 17.6219 18.2758C16.3328 17.0321 15.6031 15.8274 15.5328 14.0836C15.532 14.0684 15.5254 14.0541 15.5143 14.0437C15.5033 14.0332 15.4886 14.0274 15.4734 14.0274C12.6974 14.0336 9.9854 14.0316 7.33748 14.0211C6.22186 14.0165 5.27029 14.304 4.48748 15.0461C3.68956 15.8014 3.29113 16.7711 3.29217 17.9555C3.29425 27.8493 3.29425 37.7008 3.29217 47.5102C3.29217 47.5192 3.29395 47.5282 3.2974 47.5365C3.30086 47.5449 3.30592 47.5524 3.3123 47.5588C3.31869 47.5652 3.32627 47.5703 3.33461 47.5737C3.34295 47.5772 3.35189 47.579 3.36092 47.579L15.4765 47.5758C15.4965 47.5759 15.5157 47.5685 15.5302 47.5551C15.5447 47.5418 15.5535 47.5235 15.5547 47.504C15.6578 46.1373 16.188 44.9717 17.1453 44.0071C17.8984 43.2477 18.663 42.4826 19.439 41.7118C19.4849 41.6659 19.4927 41.6138 19.4625 41.5555C18.8437 40.3649 18.3359 39.1394 17.939 37.879C17.9305 37.8505 17.9129 37.8257 17.8889 37.8082C17.865 37.7907 17.8359 37.7815 17.8062 37.7821C16.7489 37.7935 15.6302 37.7925 14.45 37.779ZM62.0625 37.8758C61.6469 39.1868 61.1109 40.3555 60.5375 41.5665C60.5125 41.6196 60.5208 41.667 60.5625 41.7086C61.3177 42.4691 62.0427 43.1909 62.7375 43.8743C63.7552 44.8732 64.3255 46.0805 64.4484 47.4961C64.4536 47.5493 64.4828 47.5758 64.5359 47.5758L76.6375 47.579C76.6557 47.579 76.6732 47.5717 76.6861 47.5588C76.699 47.5459 76.7062 47.5284 76.7062 47.5102C76.7052 37.6842 76.7052 27.8118 76.7062 17.893C76.7062 16.2368 75.7765 14.8665 74.2312 14.2555C73.8198 14.092 73.2239 14.0123 72.4437 14.0165C69.7958 14.031 67.1562 14.0342 64.525 14.0258C64.5095 14.0258 64.4946 14.0319 64.4835 14.0427C64.4724 14.0535 64.466 14.0682 64.4656 14.0836C64.4073 15.4878 63.9005 16.6883 62.9453 17.6852C62.2099 18.4529 61.4161 19.2461 60.564 20.0649C60.512 20.1149 60.5026 20.1722 60.5359 20.2368C61.1515 21.4159 61.6588 22.6399 62.0578 23.9086C62.0765 23.9649 62.1151 23.9935 62.1734 23.9946C62.9703 24.0102 63.7526 24.0102 64.5203 23.9946C65.4567 23.9748 66.201 24.0321 66.7531 24.1665C68.5219 24.5993 69.9297 25.8633 70.5609 27.5961C70.7453 28.1024 70.8437 28.5722 70.8562 29.0055C70.8823 29.9118 70.8937 30.8894 70.8906 31.9383C70.8875 32.7967 70.7969 33.4925 70.6187 34.0258C69.8734 36.2555 67.85 37.7821 65.464 37.7868C64.3307 37.7889 63.239 37.7878 62.189 37.7836C62.1245 37.7836 62.0823 37.8144 62.0625 37.8758ZM3.29998 54.3399C3.32186 56.4805 4.89529 58.2024 7.09217 58.2024C29.1307 58.1982 51.0411 58.1987 72.8234 58.204C74.9953 58.2055 76.6765 56.5961 76.6984 54.3961C76.7099 53.2909 76.7109 52.0795 76.7015 50.7618C76.7015 50.7477 76.6959 50.7342 76.686 50.7242C76.676 50.7142 76.6625 50.7086 76.6484 50.7086H3.36092C3.34517 50.7086 3.33007 50.7149 3.31893 50.726C3.3078 50.7372 3.30154 50.7523 3.30154 50.768C3.288 52.0045 3.28748 53.1951 3.29998 54.3399ZM35.3594 68.629C35.3574 68.6361 35.3572 68.6437 35.3587 68.651C35.3601 68.6582 35.3632 68.6651 35.3678 68.671C35.3723 68.6769 35.3781 68.6816 35.3848 68.6849C35.3915 68.6882 35.3988 68.6899 35.4062 68.6899L44.5937 68.6883C44.6012 68.6883 44.6085 68.6866 44.6152 68.6834C44.6218 68.6801 44.6277 68.6753 44.6322 68.6694C44.6367 68.6635 44.6398 68.6567 44.6413 68.6494C44.6428 68.6421 44.6425 68.6346 44.6406 68.6274L42.6172 61.3665C42.6144 61.3561 42.6083 61.347 42.5998 61.3405C42.5914 61.334 42.581 61.3305 42.5703 61.3305L37.4297 61.329C37.419 61.3289 37.4086 61.3325 37.4001 61.339C37.3916 61.3455 37.3855 61.3546 37.3828 61.3649L35.3594 68.629ZM25.4969 76.8899H54.5C54.5286 76.8899 54.556 76.8785 54.5762 76.8583C54.5964 76.8381 54.6078 76.8107 54.6078 76.7821V73.9618C54.6078 73.3891 54.3734 72.8398 53.9561 72.4349C53.5388 72.0299 52.9729 71.8024 52.3828 71.8024H27.614C27.0239 71.8024 26.458 72.0299 26.0407 72.4349C25.6235 72.8398 25.389 73.3891 25.389 73.9618V76.7821C25.389 76.8107 25.4004 76.8381 25.4206 76.8583C25.4408 76.8785 25.4683 76.8899 25.4969 76.8899Z" fill="#3B32FF"/>
<path id="Vector_2" d="M39.1173 19.9071C33.3861 20.2914 28.8736 25.2711 28.9705 30.979C29.0215 33.9915 30.1038 36.5649 32.2173 38.6993C36.3236 42.8461 42.9861 43.0008 47.333 39.1274C51.4033 35.5024 52.2423 29.3914 49.2205 24.8477C48.9965 24.5112 48.7678 24.18 48.5345 23.854C48.0861 23.229 48.3064 22.2493 48.958 21.7852C49.6611 21.2868 50.5923 21.4493 51.1142 22.1196C56.2892 28.768 54.6767 38.2133 47.6767 42.7805C42.1033 46.4196 34.7517 45.6086 30.0267 40.9305C25.4017 36.3539 24.497 29.1274 27.8751 23.5852C30.3111 19.5915 34.5705 16.9383 39.2861 16.7649C40.8736 16.7071 41.497 18.8961 40.0845 19.6649C39.8387 19.7993 39.5163 19.88 39.1173 19.9071Z" fill="#3B32FF"/>
<path id="Vector_3" d="M46.6923 19.3868C46.6923 19.7999 46.5282 20.1962 46.236 20.4883C45.9439 20.7804 45.5476 20.9446 45.1345 20.9446C44.7213 20.9446 44.3251 20.7804 44.0329 20.4883C43.7408 20.1962 43.5767 19.7999 43.5767 19.3868C43.5767 18.9736 43.7408 18.5774 44.0329 18.2852C44.3251 17.9931 44.7213 17.8289 45.1345 17.8289C45.5476 17.8289 45.9439 17.9931 46.236 18.2852C46.5282 18.5774 46.6923 18.9736 46.6923 19.3868Z" fill="#3B32FF"/>
</g>
<defs>
<clipPath id="clip0_78_1242">
<rect width="80" height="80" fill="white" transform="translate(0 0.0148926)"/>
</clipPath>
</defs>
</svg>
