<svg width="80" height="81" viewBox="0 0 80 81" fill="none" xmlns="http://www.w3.org/2000/svg">
<g id="edition_3159177 1" clip-path="url(#clip0_78_1233)">
<path id="Vector" d="M80 8.98053V51.2696C79.7667 53.7102 78.8089 55.7076 77.1266 57.2618C75.5062 58.7571 73.3891 59.6321 71.1719 59.6337C63.6052 59.6399 56.0063 59.6404 48.375 59.6352C48.3674 59.6352 48.3598 59.637 48.353 59.6403C48.3461 59.6437 48.3401 59.6485 48.3355 59.6546C48.3308 59.6606 48.3275 59.6676 48.326 59.6751C48.3245 59.6826 48.3247 59.6903 48.3266 59.6977L50.6859 69.0618C50.6974 69.1097 50.7281 69.1342 50.7781 69.1352C52.0516 69.1665 53.4359 69.0008 54.5844 69.3508C56.7719 70.0149 58.2984 71.954 58.3359 74.2758C58.3474 75.0123 58.3484 75.8008 58.3391 76.6415C58.338 76.705 58.3693 76.7368 58.4328 76.7368C60.1661 76.7399 61.8161 76.742 63.3828 76.743C64.3578 76.743 64.9656 76.6836 65.4875 77.4274C66.2094 78.4602 65.4469 79.8696 64.1766 79.8696C47.4849 79.8644 31.3682 79.8644 15.8266 79.8696C13.7328 79.8696 13.6859 76.7383 15.9062 76.7399C17.8417 76.7399 19.726 76.7404 21.5594 76.7415C21.6229 76.7415 21.6547 76.7102 21.6547 76.6477C21.6568 75.9852 21.6562 75.2753 21.6531 74.518C21.6438 72.0508 23.1484 69.9868 25.5109 69.3274C26.6375 69.0118 28.0297 69.168 29.2172 69.1352C29.2398 69.1343 29.2615 69.126 29.2792 69.1117C29.2969 69.0974 29.3097 69.0777 29.3156 69.0555L31.6656 59.729C31.6802 59.6706 31.6573 59.6415 31.5969 59.6415C24.0688 59.63 16.8771 59.6326 10.0219 59.6493C8.75521 59.6524 7.78854 59.5873 7.12188 59.454C3.09844 58.6446 0.25 55.193 0 51.0899V8.96022C0.211458 6.4623 1.1849 4.38938 2.92031 2.74147C4.28281 1.44772 5.8776 0.641467 7.70469 0.322717C8.33073 0.214384 9.33125 0.160217 10.7062 0.160217C31.2865 0.173759 51.2885 0.176363 70.7125 0.16803C73.2734 0.166467 75.7391 1.29615 77.4734 3.14928C78.9589 4.7347 79.801 6.67845 80 8.98053ZM76.7625 8.42272C76.2156 5.43365 73.6672 3.29147 70.5609 3.29303C49.9807 3.30032 29.6359 3.2998 9.52656 3.29147C5.89062 3.2899 3.15938 5.99928 3.12813 9.6399C3.11771 10.8378 3.11875 12.0139 3.13125 13.168C3.13125 13.1763 3.13471 13.1843 3.14086 13.1901C3.14701 13.196 3.15536 13.1993 3.16406 13.1993L76.8016 13.2024C76.8126 13.2024 76.8235 13.2002 76.8336 13.196C76.8438 13.1917 76.853 13.1855 76.8607 13.1776C76.8684 13.1697 76.8745 13.1604 76.8785 13.1502C76.8826 13.14 76.8846 13.129 76.8844 13.118C76.8646 12.342 76.8641 11.5576 76.8828 10.7649C76.9057 9.77324 76.8656 8.99251 76.7625 8.42272ZM41.6625 31.6212C38.1813 32.9274 34.6938 34.8243 32.2031 37.5946C30.9906 38.9462 29.2906 39.4883 27.5047 39.0571C26.6734 38.8571 26.0797 38.3915 25.4094 37.918C23.8885 36.842 22.1505 36.0232 20.1953 35.4618C19.7151 35.3232 19.1589 35.2415 18.5266 35.2165C13.5734 35.0123 8.4526 34.7915 3.16406 34.554C3.159 34.5538 3.15395 34.5545 3.14922 34.5562C3.14448 34.558 3.14016 34.5606 3.13651 34.5639C3.13285 34.5673 3.12995 34.5713 3.12798 34.5758C3.126 34.5802 3.12499 34.585 3.125 34.5899V42.3118C3.125 42.3209 3.12862 42.3296 3.13507 42.3361C3.14151 42.3425 3.15026 42.3462 3.15937 42.3462C10.5594 42.3597 17.9677 42.3587 25.3844 42.343C25.7281 42.342 26.0016 42.3805 26.2047 42.4587C27.0063 42.768 27.3938 43.6868 27.0828 44.4758C26.8203 45.1394 26.2891 45.4717 25.4891 45.4727C18.3516 45.479 10.9266 45.4795 3.21406 45.4743C3.1474 45.4743 3.11458 45.5081 3.11563 45.5758C3.13854 46.8769 3.1375 48.2217 3.1125 49.6102C3.09063 50.7883 3.17135 51.6894 3.35469 52.3133C4.09531 54.8352 6.33438 56.5149 8.99688 56.5133C28.9667 56.5029 49.2958 56.505 69.9844 56.5196C71.2562 56.5206 72.1396 56.4493 72.6344 56.3055C75.2422 55.5477 76.9141 53.2368 76.8734 50.5102C76.8724 50.4477 76.8406 50.4165 76.7781 50.4165C68.0312 50.431 58.9818 50.4316 49.6297 50.418C48.3443 50.4159 47.1036 50.0706 45.9078 49.3821C45.012 48.8665 44.1224 48.3842 43.2391 47.9352C42.4057 47.5123 41.8104 47.0982 41.4531 46.693C40.7156 45.8587 40.3661 44.8904 40.4047 43.7883C40.463 42.1738 41.2359 40.9712 42.7234 40.1805C43.813 39.6014 44.9411 38.9883 46.1078 38.3415C47.2286 37.7206 48.3667 37.4102 49.5219 37.4102C58.2698 37.4071 67.3573 37.4066 76.7844 37.4087C76.8448 37.4087 76.875 37.3784 76.875 37.318V30.6399C76.875 30.62 76.8711 30.6003 76.8635 30.5819C76.8559 30.5635 76.8447 30.5468 76.8306 30.5327C76.8165 30.5187 76.7998 30.5075 76.7814 30.4999C76.7631 30.4923 76.7433 30.4883 76.7234 30.4883C68.2807 30.4769 59.9906 30.4774 51.8531 30.4899C51.1219 30.4915 50.4344 30.2087 50.1656 29.5008C49.8917 28.7821 50.0745 28.1764 50.7141 27.6837C50.9943 27.467 51.238 27.3587 51.4453 27.3587C59.8672 27.3587 68.2818 27.3587 76.6891 27.3587C76.7384 27.3587 76.7857 27.3389 76.8205 27.3037C76.8554 27.2686 76.875 27.2209 76.875 27.1712V16.3774C76.875 16.3658 76.8704 16.3547 76.8622 16.3465C76.854 16.3383 76.8428 16.3337 76.8313 16.3337L3.16719 16.3321C3.156 16.3321 3.14527 16.3365 3.13736 16.3444C3.12944 16.3524 3.125 16.3631 3.125 16.3743V23.179C3.125 23.2467 3.15885 23.279 3.22656 23.2758C8.3401 23.0519 13.5422 22.8258 18.8328 22.5977C19.2943 22.5779 19.7354 22.5066 20.1562 22.3837C22.3167 21.7524 24.1677 20.856 25.7094 19.6946C26.1479 19.3633 26.5906 19.1118 27.0375 18.9399C28.8453 18.2399 30.8234 18.7337 32.1516 20.1868C34.5516 22.8102 37.8125 24.7743 41.2687 26.0462C41.7479 26.2222 42.1422 26.43 42.4516 26.6696C44.2062 28.0274 43.6766 30.8665 41.6625 31.6212ZM21.2219 32.5071C23.5234 33.1805 25.7437 34.2477 27.6297 35.6758C28.375 36.2415 29.2031 36.2477 29.8563 35.5337C32.4641 32.6821 36.0062 30.4462 39.8844 28.9696C39.9802 28.9331 39.9802 28.8972 39.8844 28.8618C36.0031 27.4212 32.4219 25.1055 29.825 22.2712C29.2766 21.6712 28.4766 21.5571 27.7859 22.0633C25.6682 23.6123 23.4833 24.6956 21.2313 25.3133C21.1667 25.3311 21.1344 25.3732 21.1344 25.4399V27.2524C21.1344 27.3201 21.1682 27.354 21.2359 27.354C23.463 27.3633 25.8422 27.3628 28.3734 27.3524C28.6328 27.3514 28.8766 27.392 29.1047 27.4743C29.9156 27.7665 30.3062 28.7368 29.9578 29.5227C29.6734 30.1654 29.1464 30.4863 28.3766 30.4852C25.8443 30.4831 23.4573 30.4826 21.2156 30.4837C21.1615 30.4837 21.1344 30.5107 21.1344 30.5649V32.3915C21.1344 32.4519 21.1635 32.4904 21.2219 32.5071ZM3.17656 26.404C3.16275 26.4044 3.14963 26.4101 3.14 26.4201C3.13038 26.43 3.12499 26.4433 3.125 26.4571V31.379C3.12499 31.3928 3.13038 31.4061 3.14 31.416C3.14963 31.4259 3.16275 31.4317 3.17656 31.4321L17.9547 32.0665C17.9617 32.0667 17.9686 32.0655 17.9751 32.063C17.9817 32.0605 17.9876 32.0568 17.9927 32.052C17.9978 32.0472 18.0019 32.0415 18.0047 32.0351C18.0076 32.0288 18.0092 32.0219 18.0094 32.0149V25.8196C18.0092 25.8126 18.0076 25.8057 18.0047 25.7994C18.0019 25.793 17.9978 25.7873 17.9927 25.7825C17.9876 25.7777 17.9817 25.7739 17.9751 25.7715C17.9686 25.769 17.9617 25.7678 17.9547 25.768L3.17656 26.404ZM52.8906 47.229C52.8879 47.2365 52.887 47.2446 52.888 47.2526C52.889 47.2606 52.892 47.2682 52.8966 47.2748C52.9012 47.2814 52.9073 47.2867 52.9144 47.2905C52.9215 47.2942 52.9295 47.2961 52.9375 47.2962L76.8125 47.2977C76.8207 47.2977 76.8288 47.2961 76.8364 47.293C76.844 47.2898 76.8509 47.2852 76.8567 47.2794C76.8625 47.2736 76.8671 47.2667 76.8702 47.2591C76.8734 47.2515 76.875 47.2434 76.875 47.2352V40.5899C76.875 40.5746 76.8689 40.5599 76.8581 40.549C76.8472 40.5382 76.8325 40.5321 76.8172 40.5321H52.9766C52.9068 40.5321 52.8823 40.5654 52.9031 40.6321C53.1552 41.4363 53.3052 41.9821 53.3531 42.2696C53.6312 43.9383 53.4771 45.5915 52.8906 47.229ZM47.9094 40.9352C46.6948 41.5581 45.4099 42.2482 44.0547 43.0055C43.2953 43.429 43.3719 44.4477 44.0953 44.8477C45.2578 45.4935 46.4714 46.1514 47.7359 46.8212C48.2318 47.0837 48.7536 47.2373 49.3016 47.2821C49.3578 47.2863 49.401 47.2644 49.4312 47.2165C50.7016 45.1805 50.6328 42.7086 49.4594 40.6337C49.4323 40.5857 49.3906 40.5613 49.3344 40.5602C48.8792 40.556 48.4042 40.681 47.9094 40.9352ZM34.9578 59.6368C34.9445 59.6367 34.9315 59.6412 34.9211 59.6494C34.9106 59.6576 34.9032 59.6691 34.9 59.6821L32.5359 69.0696C32.5338 69.0783 32.5337 69.0875 32.5356 69.0963C32.5375 69.105 32.5414 69.1133 32.547 69.1204C32.5525 69.1274 32.5596 69.1332 32.5678 69.1371C32.5759 69.141 32.5847 69.143 32.5938 69.143L47.4062 69.1415C47.4153 69.1415 47.4241 69.1395 47.4323 69.1355C47.4404 69.1316 47.4475 69.1259 47.453 69.1188C47.4586 69.1117 47.4625 69.1035 47.4644 69.0947C47.4663 69.0859 47.4662 69.0768 47.4641 69.068L45.1 59.6821C45.0968 59.6691 45.0894 59.6576 45.0789 59.6494C45.0685 59.6412 45.0555 59.6367 45.0422 59.6368H34.9578ZM24.8516 76.7415H55.1516C55.1756 76.7415 55.1987 76.7319 55.2156 76.7149C55.2326 76.6979 55.2422 76.6749 55.2422 76.6508V74.5586C55.2422 73.9474 54.9967 73.3612 54.5598 72.929C54.1229 72.4968 53.5304 72.254 52.9125 72.254H27.0906C26.4728 72.254 25.8802 72.4968 25.4433 72.929C25.0064 73.3612 24.7609 73.9474 24.7609 74.5586V76.6508C24.7609 76.6749 24.7705 76.6979 24.7875 76.7149C24.8045 76.7319 24.8275 76.7415 24.8516 76.7415Z" fill="#3B32FF"/>
<path id="Vector_2" d="M69.8732 5.95082C70.0232 5.78207 70.1821 5.62895 70.3498 5.49145C71.1545 4.83364 72.3373 5.11957 72.7498 6.05082C73.1279 6.90707 72.7326 7.58989 72.0654 8.16489C72.0537 8.17491 72.0442 8.18737 72.0378 8.20143C72.0313 8.21549 72.028 8.23082 72.028 8.24638C72.028 8.26194 72.0313 8.27736 72.0378 8.29161C72.0442 8.30585 72.0537 8.31859 72.0654 8.32895C72.2217 8.46541 72.3659 8.61072 72.4982 8.76489C73.3139 9.71332 72.7873 11.2024 71.5154 11.3461C70.7795 11.4289 70.3295 11.0461 69.8686 10.5352C69.8196 10.481 69.768 10.4789 69.7139 10.5289C69.4732 10.7493 69.2482 11.0414 68.9498 11.1789C67.9857 11.6211 66.8654 11.1508 66.6904 10.0571C66.5623 9.25707 66.9889 8.80395 67.5185 8.30551C67.5271 8.29763 67.534 8.28803 67.5386 8.27734C67.5432 8.26664 67.5455 8.25509 67.5454 8.24344C67.5452 8.23179 67.5426 8.2203 67.5377 8.20973C67.5328 8.19915 67.5258 8.18973 67.517 8.18207C67.3264 8.01645 67.154 7.83676 66.9998 7.64301C66.2154 6.65551 66.9045 5.16332 68.1857 5.1352C68.8373 5.11957 69.2764 5.48207 69.6857 5.94926C69.7482 6.02114 69.8107 6.02166 69.8732 5.95082Z" fill="#3B32FF"/>
<path id="Vector_3" d="M63.8497 9.88465C63.8494 10.0792 63.8107 10.2717 63.736 10.4513C63.6612 10.6309 63.5518 10.794 63.414 10.9313C63.2762 11.0686 63.1128 11.1774 62.9329 11.2516C62.7531 11.3257 62.5604 11.3637 62.3659 11.3633L58.7878 11.3571C58.5932 11.3567 58.4007 11.3181 58.2211 11.2433C58.0415 11.1686 57.8784 11.0592 57.7411 10.9214C57.6038 10.7836 57.495 10.6201 57.4209 10.4403C57.3467 10.2605 57.3087 10.0678 57.3091 9.87325L57.3093 9.7295C57.3097 9.53498 57.3483 9.34243 57.4231 9.16284C57.4978 8.98326 57.6072 8.82015 57.745 8.68285C57.8828 8.54554 58.0463 8.43671 58.2261 8.36259C58.406 8.28846 58.5987 8.25049 58.7932 8.25083L62.3713 8.25708C62.5658 8.25741 62.7584 8.29606 62.9379 8.37082C63.1175 8.44557 63.2806 8.55496 63.4179 8.69275C63.5552 8.83053 63.6641 8.99401 63.7382 9.17386C63.8123 9.3537 63.8503 9.54638 63.85 9.7409L63.8497 9.88465Z" fill="#3B32FF"/>
<path id="Vector_4" d="M33.4421 43.9133C33.4421 44.3261 33.2781 44.7219 32.9863 45.0138C32.6944 45.3056 32.2986 45.4696 31.8858 45.4696C31.4731 45.4696 31.0773 45.3056 30.7854 45.0138C30.4936 44.7219 30.3296 44.3261 30.3296 43.9133C30.3296 43.5006 30.4936 43.1048 30.7854 42.8129C31.0773 42.5211 31.4731 42.3571 31.8858 42.3571C32.2986 42.3571 32.6944 42.5211 32.9863 42.8129C33.2781 43.1048 33.4421 43.5006 33.4421 43.9133Z" fill="#3B32FF"/>
</g>
<defs>
<clipPath id="clip0_78_1233">
<rect width="80" height="80" fill="white" transform="translate(0 0.0148926)"/>
</clipPath>
</defs>
</svg>
