<svg width="150" height="151" viewBox="0 0 150 151" fill="none" xmlns="http://www.w3.org/2000/svg">
<g id="edition_3159412 1" clip-path="url(#clip0_78_1151)">
<path id="Vector" d="M97.1336 0.0148926H99.4598C106.762 0.313721 113.202 2.51685 118.778 6.62427C128.083 13.4739 133.623 24.3752 133.298 35.9182C133.013 45.8879 128.496 55.2981 120.846 61.7551C120.757 61.8313 120.712 61.929 120.712 62.0481V75.0706C120.712 75.1741 120.762 75.2258 120.864 75.2258C124.044 75.2649 127.423 75.2629 131.001 75.22C133.782 75.1868 135.711 75.3069 136.787 75.5803C139.734 76.3303 142.032 77.9319 143.68 80.385C148.092 86.9504 144.779 95.9036 137.115 98.0071C136.06 98.2961 134.797 98.4358 133.324 98.426C129.363 98.4006 125.206 98.3967 120.852 98.4143C120.757 98.4163 120.709 98.4651 120.709 98.5608C120.715 106.006 120.714 113.611 120.706 121.374C120.704 123.872 120.053 126.054 118.755 127.919C116.423 131.269 113.111 132.945 108.82 132.947C96.7537 132.948 84.5194 132.949 72.117 132.949C72.0077 132.949 71.9598 133.004 71.9735 133.114L73.2713 143.991C73.2831 144.085 73.3358 144.134 73.4295 144.138C74.7674 144.179 76.2206 144.178 77.7889 144.135C78.9022 144.104 79.6639 144.137 80.0741 144.235C83.3641 144.999 83.0653 149.406 79.825 150.015H45.1728C41.4579 149.256 41.9794 144.15 45.8056 144.138C47.8446 144.13 49.7733 144.139 51.5917 144.164C51.6991 144.166 51.7587 144.115 51.7704 144.009L53.0829 133.031C53.0846 133.021 53.0839 133.009 53.0808 132.999C53.0778 132.988 53.0725 132.978 53.0652 132.97C53.058 132.962 53.049 132.955 53.0389 132.95C53.0288 132.946 53.0178 132.943 53.0067 132.944C28.2958 132.948 15.9238 132.949 15.8906 132.949C10.582 132.911 6.09961 129.531 4.69336 124.415C4.41992 123.415 4.29297 121.556 4.3125 118.837C4.31836 118.122 4.31641 96.1711 4.30664 52.9836C4.30469 48.2004 6.12012 44.6838 9.75292 42.4338C11.3994 41.4143 13.2324 40.8547 15.2519 40.7551C15.7285 40.7297 31.8505 40.7258 63.618 40.7434C63.6355 40.7432 63.6528 40.7392 63.6686 40.7318C63.6845 40.7243 63.6986 40.7136 63.7099 40.7003C63.7213 40.687 63.7297 40.6714 63.7346 40.6546C63.7394 40.6378 63.7407 40.6201 63.7382 40.6028C60.5331 19.5442 75.9784 0.969971 97.1336 0.0148926ZM92.1678 6.7063C91.1717 9.37231 90.324 12.092 89.6248 14.8655C89.5916 14.9963 89.6424 15.054 89.7772 15.0383C95.4754 14.3381 101.264 14.3381 106.907 15.0442C106.919 15.0461 106.931 15.045 106.942 15.0411C106.953 15.0372 106.963 15.0306 106.971 15.0218C106.978 15.0131 106.984 15.0025 106.987 14.991C106.989 14.9796 106.989 14.9677 106.986 14.9563C106.254 12.0559 105.39 9.28149 104.396 6.63306C104.384 6.59806 104.362 6.56681 104.334 6.54222C104.306 6.51763 104.272 6.5005 104.235 6.49243C100.298 5.67212 96.367 5.66431 92.4432 6.46899C92.3084 6.49634 92.2166 6.57544 92.1678 6.7063ZM111.445 9.18774C112.142 11.4358 112.733 13.678 113.218 15.9143C113.23 15.9716 113.258 16.0241 113.3 16.0652C113.342 16.1064 113.394 16.1344 113.452 16.1458C116.329 16.7415 119.222 17.5481 122.133 18.5657C122.314 18.6301 122.35 18.5833 122.241 18.425C119.461 14.47 115.857 11.3059 111.574 9.07935C111.558 9.07086 111.54 9.06735 111.522 9.06926C111.504 9.07117 111.487 9.07841 111.473 9.09006C111.459 9.10171 111.449 9.11724 111.444 9.13464C111.439 9.15204 111.439 9.17054 111.445 9.18774ZM85.1366 9.21997C85.1815 9.07153 85.1346 9.03345 84.9959 9.10571C80.6893 11.3381 77.1395 14.4504 74.3465 18.4426C74.245 18.5872 74.2772 18.6301 74.4432 18.5715C77.1815 17.6125 80.0799 16.802 83.1385 16.1399C83.1973 16.1268 83.2511 16.0973 83.2936 16.0548C83.3362 16.0122 83.3657 15.9584 83.3787 15.8997C83.826 13.8059 84.4119 11.5793 85.1366 9.21997ZM88.5028 48.926C95.2273 49.9104 101.781 49.9026 108.164 48.9026C108.244 48.8889 108.29 48.843 108.302 48.7649C109.839 39.5559 109.836 30.3762 108.293 21.2258C108.283 21.1672 108.249 21.134 108.19 21.1262C101.565 20.1262 94.991 20.1272 88.4676 21.1292C88.3602 21.1448 88.2967 21.2063 88.2772 21.3137C86.7557 30.5032 86.7576 39.635 88.283 48.7092C88.3045 48.8362 88.3778 48.9084 88.5028 48.926ZM81.9989 47.6077C82.0197 47.6126 82.0415 47.6124 82.0623 47.6071C82.0831 47.6017 82.1022 47.5914 82.1181 47.577C82.134 47.5625 82.1461 47.5444 82.1534 47.5243C82.1607 47.5041 82.163 47.4824 82.16 47.4612C80.9784 39.1174 80.9813 30.8059 82.1688 22.5266C82.1706 22.5113 82.1686 22.4957 82.1632 22.4813C82.1577 22.4669 82.1489 22.4539 82.1374 22.4436C82.1259 22.4333 82.1122 22.4259 82.0972 22.422C82.0823 22.418 82.0667 22.4178 82.0516 22.4211C78.118 23.4036 74.2918 24.7463 70.5731 26.4495C70.4696 26.4983 70.4022 26.5774 70.371 26.6868C68.7499 32.304 68.7577 37.8713 70.3944 43.3889C70.4237 43.4846 70.4842 43.554 70.576 43.5969C74.3143 45.2942 78.1219 46.6311 81.9989 47.6077ZM126.061 26.4553C122.231 24.7151 118.386 23.3655 114.527 22.4065C114.513 22.4028 114.499 22.4027 114.485 22.4061C114.471 22.4095 114.458 22.4164 114.448 22.426C114.437 22.4356 114.43 22.4477 114.425 22.4612C114.42 22.4747 114.419 22.4891 114.422 22.5032C115.615 30.8313 115.618 39.1467 114.43 47.4495C114.411 47.5881 114.469 47.6409 114.603 47.6077C118.535 46.6155 122.333 45.2815 125.997 43.6057C126.116 43.551 126.193 43.4622 126.228 43.3391C127.843 37.6907 127.831 32.1116 126.19 26.6018C126.18 26.5696 126.163 26.5398 126.141 26.5146C126.119 26.4894 126.092 26.4692 126.061 26.4553ZM68.6952 53.9622C68.8143 53.9622 68.8417 53.9114 68.7772 53.8098C67.3319 51.5188 66.1727 49.1594 65.2997 46.7317C65.2665 46.6418 65.202 46.5969 65.1063 46.5969C49.0282 46.5969 32.9482 46.5969 16.8662 46.5969C15.3662 46.5969 14.3183 46.7219 13.7226 46.9719C10.7754 48.2083 9.95214 50.7629 10.2099 53.801C10.2197 53.9084 10.2783 53.9622 10.3857 53.9622H68.6952ZM74.4549 51.4661C74.285 51.4075 74.2518 51.4524 74.3553 51.6008C77.1209 55.5696 80.6883 58.6858 85.0574 60.9495C85.0687 60.9552 85.0814 60.9574 85.0939 60.956C85.1065 60.9546 85.1183 60.9495 85.128 60.9414C85.1377 60.9332 85.1448 60.9225 85.1484 60.9104C85.152 60.8983 85.1519 60.8854 85.1483 60.8733C84.4569 58.6311 83.8651 56.3831 83.3729 54.1292C83.3605 54.0709 83.3316 54.0174 83.2894 53.9753C83.2473 53.9332 83.1939 53.9042 83.1356 53.8918C80.0887 53.2336 77.1952 52.425 74.4549 51.4661ZM111.583 60.9436C115.868 58.7268 119.42 55.6165 122.238 51.6125C122.342 51.4641 122.307 51.4192 122.135 51.4778C119.309 52.4524 116.416 53.26 113.455 53.9006C113.326 53.928 113.248 54.0061 113.22 54.135C112.689 56.5237 112.1 58.7571 111.454 60.8352C111.409 60.9739 111.452 61.01 111.583 60.9436ZM106.983 55.1047C106.987 55.0908 106.987 55.0763 106.983 55.0624C106.98 55.0485 106.973 55.0357 106.963 55.025C106.954 55.0143 106.942 55.0061 106.929 55.0011C106.915 54.9961 106.901 54.9945 106.887 54.9963C101.164 55.6897 95.4285 55.6877 89.6805 54.9905C89.669 54.9893 89.6575 54.9909 89.6467 54.995C89.636 54.9992 89.6263 55.0058 89.6186 55.0143C89.6109 55.0229 89.6053 55.0332 89.6023 55.0443C89.5994 55.0554 89.599 55.0671 89.6014 55.0784C90.3338 57.9768 91.1942 60.7395 92.1824 63.3665C92.2176 63.4602 92.284 63.5178 92.3817 63.5393C96.1551 64.3499 100.075 64.3635 104.141 63.5803C104.274 63.553 104.365 63.4758 104.414 63.3489C105.388 60.759 106.245 58.011 106.983 55.1047ZM69.0702 98.5491C69.1288 103.6 65.6805 107.857 60.9139 109.163C59.9667 109.421 58.1239 109.546 55.3856 109.538C45.1708 109.503 35.2704 109.496 25.6845 109.518C20.5254 109.53 16.2627 106.412 14.8301 101.511C14.5273 100.472 14.3877 98.7112 14.4111 96.2288C14.4658 90.2952 14.4648 83.9827 14.4082 77.2913C14.3887 74.9397 14.5215 73.26 14.8066 72.2522C16.0722 67.7961 19.9336 64.4563 24.5595 64.219C26.0185 64.1448 27.7558 64.1262 29.7714 64.1633C30.2558 64.1731 30.6874 64.2483 31.0664 64.3889C32.5927 64.9602 33.2929 66.762 32.6572 68.2268C32.1533 69.385 31.2333 69.9807 29.8974 70.0139C28.6845 70.0413 27.414 70.0374 26.0859 70.0022C22.7402 69.9114 20.2851 71.8889 20.291 75.3694C20.3047 82.7073 20.3007 90.2483 20.2793 97.9924C20.2734 100.38 21.1494 102.261 23.3759 103.251C24.0517 103.55 25.3193 103.695 27.1787 103.685C37.0634 103.628 47.0898 103.625 57.2577 103.676C58.4237 103.682 59.3114 103.565 59.9208 103.324C61.9774 102.514 63.0858 100.942 63.246 98.6077C63.248 98.5745 63.2432 98.5413 63.2318 98.5102C63.2204 98.479 63.2026 98.4507 63.1797 98.4269C63.1568 98.4032 63.1292 98.3846 63.0987 98.3723C63.0683 98.36 63.0356 98.3544 63.0028 98.3557C61.0731 98.428 59.1825 98.4348 57.3309 98.3762C51.8544 98.1985 46.912 96.386 42.5038 92.9387C40.7577 91.5735 39.5419 89.9885 39.2665 87.7737C38.7919 83.9358 41.1972 81.3049 44.2441 79.4241C47.6855 77.2991 51.2724 75.9807 55.0048 75.469C57.5243 75.1233 60.3192 75.2727 62.953 75.2434C63.1678 75.2415 63.2655 75.1331 63.246 74.9182C62.9735 72.0852 60.9872 70.0315 58.1161 70.0198C56.6845 70.0139 55.2518 70.0198 53.8183 70.0374C49.3944 70.093 49.4911 64.093 53.6425 64.1575C55.9774 64.1956 58.5731 63.9407 60.7645 64.4944C65.6542 65.7249 69.1024 70.0315 69.0702 75.1145C69.0702 75.1487 69.0841 75.1815 69.1088 75.2057C69.1335 75.2298 69.167 75.2434 69.202 75.2434H114.77C114.792 75.2434 114.813 75.2348 114.828 75.2194C114.844 75.204 114.852 75.1831 114.852 75.1614V66.0735C114.852 65.9407 114.794 65.9055 114.677 65.968C101.065 73.1106 84.6619 70.6116 73.7079 59.927C73.6745 59.8936 73.6345 59.867 73.5903 59.8489C73.5461 59.8308 73.4984 59.8215 73.4501 59.8215H10.3447C10.2373 59.8215 10.1836 59.8752 10.1836 59.9827V113.687C10.1836 113.784 10.2324 113.833 10.3301 113.833L114.7 113.836C114.802 113.836 114.852 113.785 114.852 113.684V98.5051C114.852 98.4803 114.842 98.4564 114.825 98.4388C114.807 98.4213 114.783 98.4114 114.759 98.4114L69.2079 98.4084C69.1713 98.4084 69.1363 98.4233 69.1105 98.4496C69.0847 98.476 69.0702 98.5118 69.0702 98.5491ZM124.602 81.2141C124.602 81.1846 124.591 81.1563 124.57 81.1354C124.549 81.1145 124.52 81.1028 124.491 81.1028H61.1337C61.1041 81.1028 61.0758 81.1145 61.055 81.1354C61.0341 81.1563 61.0223 81.1846 61.0223 81.2141V92.4407C61.0223 92.4702 61.0341 92.4985 61.055 92.5194C61.0758 92.5403 61.1041 92.552 61.1337 92.552H124.491C124.52 92.552 124.549 92.5403 124.57 92.5194C124.591 92.4985 124.602 92.4702 124.602 92.4407V81.2141ZM130.444 81.261L130.485 92.4231C130.486 92.4614 130.502 92.4979 130.529 92.5248C130.556 92.5516 130.593 92.5667 130.632 92.5667L134.056 92.5549C135.586 92.5494 137.051 91.9445 138.129 90.8731C139.207 89.8017 139.81 88.3517 139.804 86.842V86.7717C139.802 86.0242 139.65 85.2845 139.358 84.5948C139.065 83.9052 138.638 83.2792 138.1 82.7525C137.563 82.2258 136.925 81.8088 136.225 81.5252C135.524 81.2417 134.773 81.0971 134.015 81.0999L130.591 81.1116C130.571 81.1116 130.552 81.1155 130.534 81.123C130.516 81.1305 130.5 81.1416 130.486 81.1555C130.472 81.1694 130.462 81.1859 130.454 81.204C130.447 81.2221 130.444 81.2415 130.444 81.261ZM54.9755 81.387C51.4569 82.0315 48.3808 83.4553 45.5917 85.7961C44.9648 86.3235 44.8358 87.2024 45.4921 87.7708C48.2909 90.1965 51.4823 91.7043 55.0663 92.2942C55.0784 92.2959 55.0908 92.295 55.1025 92.2917C55.1143 92.2883 55.1251 92.2826 55.1343 92.2748C55.1435 92.267 55.1508 92.2573 55.1558 92.2465C55.1607 92.2357 55.1632 92.224 55.163 92.2122V81.5422C55.163 81.4172 55.1005 81.3655 54.9755 81.387ZM114.621 119.698H10.4121C10.329 119.698 10.2492 119.732 10.1904 119.79C10.1316 119.849 10.0986 119.929 10.0986 120.012V121.169C10.0986 122.747 10.7332 124.259 11.8628 125.375C12.9925 126.49 14.5245 127.116 16.122 127.116H108.911C110.508 127.116 112.041 126.49 113.17 125.375C114.3 124.259 114.934 122.747 114.934 121.169V120.012C114.934 119.929 114.901 119.849 114.843 119.79C114.784 119.732 114.704 119.698 114.621 119.698ZM66.0614 133.043C66.0585 133.017 66.0461 132.993 66.0266 132.976C66.0072 132.959 65.982 132.949 65.9559 132.949L59.0888 132.947C59.0627 132.946 59.0375 132.956 59.018 132.973C58.9986 132.99 58.9862 133.014 58.9833 133.04L57.6679 144.038C57.6662 144.053 57.6677 144.068 57.6723 144.082C57.6768 144.096 57.6843 144.11 57.6943 144.121C57.7042 144.132 57.7164 144.141 57.7301 144.147C57.7437 144.153 57.7584 144.156 57.7733 144.156H67.2714C67.2862 144.156 67.301 144.153 67.3146 144.147C67.3282 144.141 67.3404 144.132 67.3504 144.121C67.3604 144.11 67.3679 144.096 67.3724 144.082C67.377 144.068 67.3785 144.053 67.3768 144.038L66.0614 133.043Z" fill="#3B32FF"/>
<path id="Vector_2" d="M44.625 67.0928C44.625 67.8674 44.3172 68.6104 43.7695 69.1581C43.2217 69.7059 42.4788 70.0137 41.7041 70.0137C40.9294 70.0137 40.1865 69.7059 39.6387 69.1581C39.0909 68.6104 38.7832 67.8674 38.7832 67.0928C38.7832 66.3181 39.0909 65.5752 39.6387 65.0274C40.1865 64.4796 40.9294 64.1719 41.7041 64.1719C42.4788 64.1719 43.2217 64.4796 43.7695 65.0274C44.3172 65.5752 44.625 66.3181 44.625 67.0928Z" fill="#3B32FF"/>
</g>
<defs>
<clipPath id="clip0_78_1151">
<rect width="150" height="150" fill="white" transform="translate(0 0.0148926)"/>
</clipPath>
</defs>
</svg>
