<svg width="74" height="72" viewBox="0 0 74 72" fill="none" xmlns="http://www.w3.org/2000/svg">
<g id="Group">
<path id="Vector" d="M21.147 32.936C19.964 31.63 19.352 29.991 19.355 28.34C19.352 26.689 19.963 25.05 21.147 23.744L33.008 11.883C35.683 9.20799 35.683 4.86999 33.008 2.19399C30.333 -0.481006 25.995 -0.481006 23.319 2.19399L2.15203 23.362C2.10503 23.406 2.05102 23.436 2.00502 23.482C0.664023 24.823 -0.00398214 26.582 1.7857e-05 28.34C-0.00398214 30.098 0.664023 31.857 2.00502 33.198C2.05102 33.244 2.10503 33.274 2.15203 33.318L23.32 54.486C25.995 57.161 30.333 57.161 33.009 54.486C35.684 51.811 35.684 47.473 33.009 44.797L21.147 32.936Z" fill="#FF9A28"/>
<path id="Vector_2" d="M52.038 48.255C53.221 46.949 53.833 45.31 53.83 43.659C53.833 42.008 53.222 40.369 52.038 39.063L40.177 27.202C37.502 24.527 37.502 20.189 40.177 17.514C42.852 14.839 47.19 14.839 49.866 17.514L71.034 38.682C71.081 38.726 71.135 38.756 71.181 38.802C72.522 40.143 73.19 41.902 73.186 43.66C73.19 45.418 72.522 47.177 71.181 48.518C71.135 48.564 71.081 48.594 71.034 48.638L49.866 69.806C47.191 72.481 42.853 72.481 40.177 69.806C37.502 67.131 37.502 62.793 40.177 60.118L52.038 48.255Z" fill="#3B32FF"/>
</g>
</svg>
