<svg width="150" height="151" viewBox="0 0 150 151" fill="none" xmlns="http://www.w3.org/2000/svg">
<g id="layout_3159260 1">
<path id="Vector" d="M150 18.8499V131.221C149.445 136.035 147.059 139.39 142.84 141.284C141.354 141.952 139.664 142.245 138.05 142.245C96.9307 142.234 55.709 142.24 14.3848 142.263C11.7852 142.265 9.95312 142.136 8.88867 141.876C3.94922 140.678 0.439453 136.342 0 131.23V18.7591C0.489258 13.4241 4.25977 9.01199 9.46582 8.02469C10.417 7.845 12.2197 7.75614 14.874 7.75809C54.8135 7.80301 95.8555 7.80789 138 7.77274C139.594 7.77274 141.311 8.06571 142.775 8.7161C147.051 10.6106 149.459 13.9886 150 18.8499ZM128.9 41.9505C127.081 41.9505 125.839 40.3655 126.023 38.6634C126.205 36.9934 127.57 36.0882 129.188 36.0882C134.795 36.0823 139.734 36.0862 144.006 36.0999C144.042 36.0999 144.077 36.0854 144.103 36.0596C144.129 36.0337 144.144 35.9987 144.144 35.9622C144.134 30.8372 144.137 25.5774 144.152 20.1829C144.158 17.3352 143.027 15.138 140.338 14.0159C139.697 13.7503 138.444 13.6184 136.579 13.6204C96.0615 13.6575 54.71 13.6624 12.5244 13.635C11.292 13.6331 10.3389 13.7679 9.66504 14.0393C8.0127 14.6995 6.86914 15.845 6.23438 17.4759C5.96094 18.177 5.8291 19.2044 5.83887 20.5579C5.87012 25.7786 5.87402 30.9065 5.85059 35.9417C5.84863 36.0413 5.89844 36.0911 6 36.0911C39.1191 36.0911 72.251 36.096 105.396 36.1057C109.397 36.1087 109.362 41.9651 105.249 41.9651C72.1475 41.9554 39.0391 41.9505 5.92383 41.9505C5.88086 41.9505 5.85938 41.972 5.85938 42.0149C5.85938 71.4622 5.85645 100.919 5.85059 130.386C5.85059 133.828 8.42285 136.222 11.792 136.404C11.8057 136.406 53.9443 136.391 138.208 136.36C140.821 136.36 143.127 134.707 143.871 132.235C144.051 131.639 144.141 130.543 144.141 128.948C144.141 99.9846 144.141 71.0276 144.141 42.0765C144.141 42.043 144.127 42.011 144.103 41.9874C144.079 41.9637 144.046 41.9505 144.012 41.9505C138.502 41.9524 133.465 41.9524 128.9 41.9505Z" fill="#3B32FF"/>
<path id="Vector_2" d="M26.918 25.178C26.918 27.561 25.9713 29.8465 24.2862 31.5316C22.6011 33.2167 20.3157 34.1633 17.9326 34.1633C15.5496 34.1633 13.2641 33.2167 11.579 31.5316C9.89393 29.8465 8.94727 27.561 8.94727 25.178C8.94727 22.7949 9.89393 20.5095 11.579 18.8244C13.2641 17.1393 15.5496 16.1926 17.9326 16.1926C20.3157 16.1926 22.6011 17.1393 24.2862 18.8244C25.9713 20.5095 26.918 22.7949 26.918 25.178ZM21.0557 25.178C21.0557 24.3497 20.7266 23.5553 20.1409 22.9697C19.5553 22.384 18.7609 22.0549 17.9326 22.0549C17.5225 22.0549 17.1164 22.1357 16.7375 22.2927C16.3586 22.4496 16.0143 22.6796 15.7243 22.9697C15.4343 23.2597 15.2042 23.6039 15.0473 23.9828C14.8903 24.3617 14.8096 24.7679 14.8096 25.178C14.8096 25.5881 14.8903 25.9942 15.0473 26.3731C15.2042 26.752 15.4343 27.0963 15.7243 27.3863C16.0143 27.6763 16.3586 27.9063 16.7375 28.0633C17.1164 28.2202 17.5225 28.301 17.9326 28.301C18.7609 28.301 19.5553 27.972 20.1409 27.3863C20.7266 26.8006 21.0557 26.0063 21.0557 25.178Z" fill="#3B32FF"/>
<path id="Vector_3" d="M49.3096 25.178C49.3096 26.358 49.0772 27.5264 48.6256 28.6165C48.174 29.7067 47.5122 30.6972 46.6778 31.5316C45.8435 32.3659 44.8529 33.0278 43.7628 33.4794C42.6726 33.9309 41.5042 34.1633 40.3242 34.1633C37.9412 34.1633 35.6557 33.2167 33.9706 31.5316C32.2855 29.8465 31.3389 27.561 31.3389 25.178C31.3389 22.7949 32.2855 20.5095 33.9706 18.8244C35.6557 17.1393 37.9412 16.1926 40.3242 16.1926C41.5042 16.1926 42.6726 16.425 43.7628 16.8766C44.8529 17.3282 45.8435 17.99 46.6778 18.8244C47.5122 19.6587 48.174 20.6493 48.6256 21.7394C49.0772 22.8296 49.3096 23.998 49.3096 25.178ZM43.4473 25.178C43.4473 24.7679 43.3665 24.3617 43.2095 23.9828C43.0526 23.6039 42.8225 23.2597 42.5325 22.9697C42.2425 22.6796 41.8983 22.4496 41.5194 22.2927C41.1405 22.1357 40.7343 22.0549 40.3242 22.0549C39.4959 22.0549 38.7016 22.384 38.1159 22.9697C37.5302 23.5553 37.2012 24.3497 37.2012 25.178C37.2012 26.0063 37.5302 26.8006 38.1159 27.3863C38.7016 27.972 39.4959 28.301 40.3242 28.301C40.7343 28.301 41.1405 28.2202 41.5194 28.0633C41.8983 27.9063 42.2425 27.6763 42.5325 27.3863C42.8225 27.0963 43.0526 26.752 43.2095 26.3731C43.3665 25.9942 43.4473 25.5881 43.4473 25.178Z" fill="#3B32FF"/>
<path id="Vector_4" d="M71.7012 25.178C71.7012 27.561 70.7545 29.8465 69.0694 31.5316C67.3843 33.2167 65.0989 34.1633 62.7158 34.1633C60.3328 34.1633 58.0473 33.2167 56.3622 31.5316C54.6771 29.8465 53.7305 27.561 53.7305 25.178C53.7305 22.7949 54.6771 20.5095 56.3622 18.8244C58.0473 17.1393 60.3328 16.1926 62.7158 16.1926C65.0989 16.1926 67.3843 17.1393 69.0694 18.8244C70.7545 20.5095 71.7012 22.7949 71.7012 25.178ZM65.8389 25.1809C65.8389 24.7708 65.7581 24.3647 65.6011 23.9858C65.4442 23.6069 65.2142 23.2626 64.9241 22.9726C64.6341 22.6826 64.2899 22.4525 63.911 22.2956C63.5321 22.1386 63.1259 22.0579 62.7158 22.0579C62.3057 22.0579 61.8996 22.1386 61.5207 22.2956C61.1418 22.4525 60.7975 22.6826 60.5075 22.9726C60.2175 23.2626 59.9875 23.6069 59.8305 23.9858C59.6736 24.3647 59.5928 24.7708 59.5928 25.1809C59.5928 26.0092 59.9218 26.8036 60.5075 27.3892C61.0932 27.9749 61.8875 28.304 62.7158 28.304C63.5441 28.304 64.3385 27.9749 64.9241 27.3892C65.5098 26.8036 65.8389 26.0092 65.8389 25.1809Z" fill="#3B32FF"/>
<path id="Vector_5" d="M120.114 39.0178C120.114 39.7925 119.807 40.5354 119.259 41.0832C118.711 41.631 117.968 41.9387 117.193 41.9387C116.419 41.9387 115.676 41.631 115.128 41.0832C114.58 40.5354 114.272 39.7925 114.272 39.0178C114.272 38.2432 114.58 37.5002 115.128 36.9524C115.676 36.4047 116.419 36.0969 117.193 36.0969C117.968 36.0969 118.711 36.4047 119.259 36.9524C119.807 37.5002 120.114 38.2432 120.114 39.0178Z" fill="#3B32FF"/>
<path id="Vector_6" d="M138.422 71.385C138.422 72.4611 138.21 73.5267 137.798 74.5208C137.386 75.515 136.783 76.4184 136.022 77.1793C135.261 77.9402 134.358 78.5438 133.363 78.9556C132.369 79.3674 131.304 79.5793 130.228 79.5793H19.7725C17.5992 79.5793 15.5149 78.716 13.9782 77.1793C12.4415 75.6425 11.5781 73.5583 11.5781 71.385V59.5198C11.5781 58.4437 11.7901 57.3781 12.2019 56.3839C12.6137 55.3898 13.2173 54.4864 13.9782 53.7255C14.7391 52.9646 15.6424 52.361 16.6366 51.9492C17.6308 51.5374 18.6964 51.3254 19.7725 51.3254H130.228C131.304 51.3254 132.369 51.5374 133.363 51.9492C134.358 52.361 135.261 52.9646 136.022 53.7255C136.783 54.4864 137.386 55.3898 137.798 56.3839C138.21 57.3781 138.422 58.4437 138.422 59.5198V71.385ZM72.0703 57.302C72.0703 57.2709 72.058 57.2411 72.036 57.2191C72.014 57.1972 71.9842 57.1848 71.9531 57.1848H45.4277C45.3967 57.1848 45.3668 57.1972 45.3449 57.2191C45.3229 57.2411 45.3105 57.2709 45.3105 57.302V73.6028C45.3105 73.6339 45.3229 73.6637 45.3449 73.6856C45.3668 73.7076 45.3967 73.72 45.4277 73.72H71.9531C71.9842 73.72 72.014 73.7076 72.036 73.6856C72.058 73.6637 72.0703 73.6339 72.0703 73.6028V57.302ZM104.689 57.3225C104.689 57.3044 104.686 57.2865 104.679 57.2698C104.672 57.2531 104.662 57.2379 104.649 57.2251C104.636 57.2124 104.621 57.2022 104.604 57.1953C104.588 57.1884 104.57 57.1848 104.552 57.1848H78.0674C78.0493 57.1848 78.0314 57.1884 78.0147 57.1953C77.998 57.2022 77.9828 57.2124 77.97 57.2251C77.9572 57.2379 77.9471 57.2531 77.9402 57.2698C77.9332 57.2865 77.9297 57.3044 77.9297 57.3225V73.5881C77.9297 73.6247 77.9442 73.6597 77.97 73.6855C77.9958 73.7113 78.0309 73.7258 78.0674 73.7258H104.552C104.588 73.7258 104.623 73.7113 104.649 73.6855C104.675 73.6597 104.689 73.6247 104.689 73.5881V57.3225ZM130.154 73.7229C131.596 73.7258 132.58 72.6477 132.568 71.2092C132.543 67.5354 132.55 63.8489 132.589 60.1497C132.606 58.4387 131.924 57.1907 130.031 57.1877C123.523 57.1858 117.065 57.1848 110.657 57.1848C110.629 57.1848 110.602 57.1959 110.583 57.2157C110.563 57.2355 110.552 57.2623 110.552 57.2903L110.546 73.5354C110.546 73.5844 110.565 73.6313 110.599 73.6659C110.633 73.7005 110.679 73.72 110.728 73.72C116.667 73.7141 123.143 73.7151 130.154 73.7229ZM39.4541 73.5647V57.3401C39.4541 57.2966 39.4368 57.2548 39.406 57.2241C39.3753 57.1933 39.3335 57.176 39.29 57.176H20.0713C19.3673 57.176 18.6922 57.4467 18.1944 57.9286C17.6966 58.4104 17.417 59.0639 17.417 59.7454V71.1594C17.417 71.8409 17.6966 72.4944 18.1944 72.9762C18.6922 73.4581 19.3673 73.7288 20.0713 73.7288H39.29C39.3335 73.7288 39.3753 73.7115 39.406 73.6807C39.4368 73.6499 39.4541 73.6082 39.4541 73.5647Z" fill="#3B32FF"/>
<path id="Vector_7" d="M56.5869 130.275L20.3291 130.272C17.9686 130.272 15.7047 129.334 14.0356 127.665C12.3664 125.996 11.4287 123.732 11.4287 121.371L11.4258 96.2961C11.4258 93.9356 12.3635 91.6718 14.0326 90.0026C15.7018 88.3335 17.9656 87.3958 20.3262 87.3958L56.5898 87.3928C58.9504 87.3928 61.2142 88.3305 62.8834 89.9997C64.5525 91.6688 65.4902 93.9327 65.4902 96.2932L65.4873 121.374C65.4873 123.735 64.5496 125.999 62.8804 127.668C61.2113 129.337 58.9474 130.275 56.5869 130.275ZM53.5723 93.4309C53.5889 93.4182 53.6011 93.4006 53.6071 93.3806C53.6131 93.3606 53.6127 93.3391 53.6059 93.3194C53.5991 93.2996 53.5863 93.2825 53.5692 93.2704C53.5521 93.2584 53.5316 93.252 53.5107 93.2522L23.1475 93.2551C23.1266 93.2549 23.1061 93.2613 23.089 93.2734C23.0719 93.2854 23.0591 93.3025 23.0523 93.3223C23.0455 93.3421 23.0451 93.3635 23.0511 93.3835C23.0571 93.4035 23.0693 93.4211 23.0859 93.4338L38.3232 105.035C38.3408 105.049 38.3625 105.057 38.3848 105.057C38.4071 105.057 38.4287 105.049 38.4463 105.035L53.5723 93.4309ZM59.4932 121.163C59.507 121.174 59.5236 121.181 59.5411 121.183C59.5587 121.185 59.5765 121.182 59.5924 121.175C59.6083 121.167 59.6217 121.155 59.6311 121.14C59.6405 121.125 59.6455 121.108 59.6455 121.09L59.6016 96.3635C59.6021 96.3456 59.5976 96.3279 59.5884 96.3125C59.5792 96.2971 59.5658 96.2847 59.5498 96.2766C59.5338 96.2686 59.5158 96.2654 59.4979 96.2673C59.4801 96.2692 59.4632 96.2761 59.4492 96.2873L43.3096 108.68C43.298 108.689 43.2887 108.7 43.2822 108.713C43.2758 108.726 43.2725 108.74 43.2725 108.755C43.2725 108.769 43.2758 108.783 43.2822 108.796C43.2887 108.809 43.298 108.821 43.3096 108.829L59.4932 121.163ZM17.417 96.4836C17.4032 96.4726 17.3866 96.4657 17.369 96.4637C17.3515 96.4617 17.3337 96.4647 17.3178 96.4723C17.3019 96.48 17.2884 96.492 17.279 96.507C17.2696 96.5219 17.2646 96.5392 17.2646 96.5569L17.3086 121.084C17.3085 121.102 17.3132 121.119 17.3222 121.134C17.3312 121.149 17.3442 121.161 17.3598 121.168C17.3753 121.176 17.3927 121.18 17.41 121.178C17.4274 121.177 17.444 121.171 17.458 121.16L33.4688 108.867C33.4803 108.859 33.4896 108.847 33.4961 108.834C33.5025 108.821 33.5059 108.807 33.5059 108.793C33.5059 108.778 33.5025 108.764 33.4961 108.751C33.4896 108.738 33.4803 108.727 33.4688 108.718L17.417 96.4836ZM23.0479 124.231C23.0327 124.243 23.0216 124.259 23.0163 124.278C23.0109 124.297 23.0115 124.317 23.0179 124.335C23.0243 124.353 23.0363 124.369 23.0522 124.38C23.068 124.392 23.087 124.398 23.1064 124.398H53.7568C53.7763 124.398 53.7952 124.392 53.8111 124.38C53.827 124.369 53.8389 124.353 53.8454 124.335C53.8518 124.317 53.8524 124.297 53.847 124.278C53.8417 124.259 53.8306 124.243 53.8154 124.231L38.4873 112.506C38.4712 112.494 38.4517 112.488 38.4316 112.488C38.4116 112.488 38.3921 112.494 38.376 112.506L23.0479 124.231Z" fill="#3B32FF"/>
<path id="Vector_8" d="M129.677 130.272L93.4072 130.275C91.0482 130.275 88.7859 129.338 87.1178 127.67C85.4498 126.001 84.5127 123.739 84.5127 121.38L84.5098 96.2873C84.5098 93.9284 85.4469 91.666 87.1149 89.998C88.783 88.3299 91.0453 87.3928 93.4043 87.3928L129.68 87.3958C132.039 87.3958 134.301 88.3329 135.969 90.0009C137.637 91.669 138.574 93.9313 138.574 96.2903L138.571 121.377C138.571 122.545 138.341 123.702 137.894 124.781C137.447 125.86 136.792 126.841 135.966 127.667C135.14 128.493 134.16 129.148 133.081 129.595C132.001 130.042 130.845 130.272 129.677 130.272ZM126.656 93.425C126.672 93.4127 126.684 93.3958 126.689 93.3765C126.695 93.3573 126.695 93.3368 126.688 93.3178C126.682 93.2988 126.67 93.2823 126.653 93.2706C126.637 93.2588 126.618 93.2524 126.598 93.2522H96.2168C96.1968 93.2524 96.1773 93.2588 96.161 93.2706C96.1448 93.2823 96.1326 93.2988 96.1262 93.3178C96.1197 93.3368 96.1194 93.3573 96.1251 93.3765C96.1308 93.3958 96.1424 93.4127 96.1582 93.425L111.407 105.041C111.424 105.054 111.445 105.061 111.466 105.061C111.487 105.061 111.508 105.054 111.524 105.041L126.656 93.425ZM132.589 121.178C132.602 121.188 132.619 121.195 132.636 121.197C132.653 121.198 132.67 121.195 132.685 121.187C132.7 121.18 132.713 121.168 132.722 121.153C132.731 121.139 132.736 121.122 132.735 121.105L132.691 96.3518C132.691 96.3349 132.686 96.3185 132.677 96.3043C132.668 96.2901 132.655 96.2787 132.64 96.2714C132.625 96.2641 132.608 96.2612 132.591 96.2629C132.574 96.2647 132.558 96.2712 132.545 96.2815L116.385 108.686C116.374 108.694 116.365 108.706 116.359 108.718C116.354 108.731 116.351 108.744 116.351 108.758C116.351 108.772 116.355 108.786 116.361 108.798C116.367 108.81 116.377 108.821 116.388 108.829L132.589 121.178ZM90.498 96.4836C90.4847 96.4733 90.4688 96.4669 90.452 96.4651C90.4352 96.4633 90.4183 96.4662 90.4031 96.4735C90.3879 96.4808 90.375 96.4922 90.3659 96.5064C90.3568 96.5206 90.3518 96.5371 90.3516 96.554L90.3955 121.087C90.3952 121.104 90.3998 121.121 90.4087 121.136C90.4176 121.15 90.4304 121.162 90.4457 121.17C90.461 121.178 90.4782 121.181 90.4952 121.179C90.5123 121.177 90.5285 121.171 90.542 121.16L106.553 108.865C106.564 108.856 106.573 108.845 106.579 108.833C106.585 108.82 106.588 108.807 106.588 108.793C106.588 108.779 106.585 108.765 106.579 108.753C106.573 108.74 106.564 108.729 106.553 108.721L90.498 96.4836ZM96.1406 124.222C96.124 124.235 96.1118 124.252 96.1058 124.272C96.0998 124.292 96.1002 124.314 96.107 124.333C96.1138 124.353 96.1266 124.37 96.1437 124.382C96.1608 124.394 96.1812 124.401 96.2021 124.401H126.823C126.844 124.401 126.865 124.394 126.882 124.382C126.899 124.37 126.912 124.353 126.918 124.333C126.925 124.314 126.926 124.292 126.92 124.272C126.914 124.252 126.901 124.235 126.885 124.222L111.574 112.512C111.557 112.498 111.535 112.491 111.513 112.491C111.49 112.491 111.469 112.498 111.451 112.512L96.1406 124.222Z" fill="#3B32FF"/>
</g>
</svg>
