<svg width="43" height="53" viewBox="0 0 43 53" fill="none" xmlns="http://www.w3.org/2000/svg">
<path id="Vector" d="M21.9559 19.1969C20.3341 19.8718 19.0888 21.0886 18.3951 22.577C17.696 24.0628 17.5578 25.7981 18.0787 27.4763L23.8127 43.1877C25.1059 46.7311 23.2761 50.6385 19.7259 51.9148C16.1762 53.1903 12.2493 51.3515 10.9552 47.8077L0.722832 19.7684C0.698845 19.7088 0.662615 19.6589 0.640378 19.598C-0.00790461 17.8217 0.129337 15.9541 0.874472 14.3724C1.61237 12.7872 2.959 11.486 4.73853 10.8466C4.79957 10.8246 4.86111 10.8205 4.92222 10.8008L33.0126 0.707455C36.5624 -0.568041 40.4892 1.27085 41.7833 4.81465C43.0765 8.35802 41.2468 12.2654 37.6966 13.5418L21.9559 19.1969Z" fill="#FF9A28"/>
</svg>
