<svg width="43" height="53" viewBox="0 0 43 53" fill="none" xmlns="http://www.w3.org/2000/svg">
<path id="Vector" d="M20.5521 33.5521C22.1775 32.8715 23.4271 31.647 24.1249 30.1507C24.8281 28.6569 24.9702 26.9135 24.4522 25.2285L18.7442 9.45559C17.4568 5.89834 19.2974 1.97015 22.8547 0.682833C26.4119 -0.604488 30.3401 1.23607 31.6283 4.79374L41.8152 32.9433C41.8391 33.003 41.8753 33.0531 41.8974 33.1143C42.5428 34.8976 42.4013 36.7738 41.6518 38.364C40.9096 39.9577 39.5583 41.2671 37.7751 41.9124C37.7139 41.9345 37.6523 41.9388 37.591 41.9587L9.44151 52.1456C5.88426 53.4329 1.95608 51.5924 0.667856 48.0347C-0.619465 44.4774 1.22109 40.5493 4.77834 39.2619L20.5521 33.5521Z" fill="#3B32FF"/>
</svg>
