<svg width="80" height="81" viewBox="0 0 80 81" fill="none" xmlns="http://www.w3.org/2000/svg">
<g id="web-design_3159310 1" clip-path="url(#clip0_78_1226)">
<path id="Vector" d="M62.5843 0.0148926H63.5265C68.664 0.528955 71.5109 5.77895 68.9812 10.3211C68.9406 10.393 68.9614 10.4279 69.0437 10.4258C69.3604 10.4165 69.6661 10.4154 69.9609 10.4227C73.4093 10.5118 76.189 13.2602 76.1875 16.7493C76.1812 30.5555 76.1828 43.9118 76.1921 56.818C76.1921 57.4993 76.1151 58.1305 75.9609 58.7118C75.2187 61.4993 72.6921 63.3977 69.8062 63.3993C61.9458 63.4045 53.8161 63.4055 45.4171 63.4024C45.4099 63.4024 45.4027 63.4041 45.3962 63.4073C45.3897 63.4105 45.3839 63.4151 45.3794 63.4208C45.3749 63.4265 45.3718 63.4332 45.3702 63.4402C45.3686 63.4473 45.3686 63.4547 45.3703 63.4618L47.1968 71.1352C47.2031 71.1623 47.2197 71.1758 47.2468 71.1758C48.4531 71.1956 49.5963 71.1941 50.6765 71.1711C51.4432 71.1555 52.0901 71.2316 52.6171 71.3993C54.1593 71.8883 55.4078 73.1586 55.7875 74.7711C55.9453 75.4383 55.9468 76.1102 55.9281 76.7883C55.926 76.8498 55.9557 76.881 56.0171 76.8821C57.5171 76.8998 58.9859 76.8982 60.4234 76.8774C60.8348 76.8711 61.152 76.905 61.375 76.979C62.3062 77.2868 62.6609 78.3633 62.2156 79.2243C61.9958 79.6482 61.6046 79.9118 61.0421 80.0149H18.9359C17.2312 79.668 17.0906 77.3665 18.8 76.9227C18.9 76.8967 19.2833 76.8847 19.95 76.8868C21.2062 76.8899 22.5484 76.8899 23.9765 76.8868C24.0442 76.8868 24.0765 76.8524 24.0734 76.7836C24.0567 76.4368 24.0578 76.0852 24.0765 75.729C24.1859 73.6805 25.4781 71.9852 27.4375 71.3774C27.9062 71.2326 28.4921 71.1649 29.1953 71.1743C30.4296 71.192 31.6078 71.193 32.7296 71.1774C32.7478 71.1774 32.7656 71.1712 32.78 71.1595C32.7945 71.1479 32.8048 71.1317 32.8093 71.1133L34.6281 63.4727C34.6395 63.4258 34.6208 63.4024 34.5718 63.4024C26.4916 63.4066 18.3656 63.4055 10.1937 63.3993C8.83328 63.3982 7.59214 63.005 6.47026 62.2196C4.70151 60.9831 3.81714 59.2066 3.81714 56.8899C3.81818 43.4003 3.81922 29.9107 3.82026 16.4211C3.82026 15.9055 3.94735 15.2909 4.20151 14.5774C4.91245 12.5836 6.61401 11.1071 8.64526 10.5977C9.16714 10.4665 10.1427 10.4024 11.5718 10.4055C24.5 10.4399 38.1208 10.4415 52.4343 10.4102C52.4473 10.4102 52.4601 10.4071 52.4716 10.4011C52.483 10.3951 52.4928 10.3864 52.5 10.3758C54.1166 7.96229 55.7359 5.54146 57.3578 3.11333C58.5744 1.2925 60.3166 0.259684 62.5843 0.0148926ZM66.5046 8.27739C67.7718 5.13989 64.5906 2.02583 61.4546 3.52114C60.9156 3.77896 60.3968 4.20552 60.064 4.69927C57.0296 9.22323 53.9536 13.818 50.8359 18.4836C50.8262 18.4978 50.8223 18.5153 50.8253 18.5324C50.8282 18.5496 50.8376 18.5651 50.8515 18.5758L55.4218 21.9665C55.4346 21.9757 55.4504 21.9797 55.4659 21.9777C55.4813 21.9756 55.4952 21.9677 55.5046 21.9555C58.8474 17.8764 62.3062 13.6597 65.8812 9.30552C66.1531 8.97635 66.3609 8.63364 66.5046 8.27739ZM36.2124 43.3477C35.3874 44.1227 33.9437 43.8774 33.6203 42.7211C32.5984 39.068 32.0312 34.829 33.1296 31.2961C34.5406 26.7571 38.414 24.4758 43.0453 24.3758C43.0727 24.3754 43.0995 24.3683 43.1235 24.3553C43.1474 24.3422 43.1678 24.3235 43.1828 24.3008L50.3406 13.6024C50.3446 13.5965 50.3469 13.5896 50.3472 13.5825C50.3476 13.5754 50.346 13.5683 50.3426 13.562C50.3392 13.5557 50.3342 13.5505 50.3281 13.5469C50.3219 13.5432 50.3149 13.5414 50.3078 13.5415C37.2307 13.5581 24.1463 13.5592 11.0546 13.5446C10.0432 13.5425 9.37756 13.6034 9.05776 13.7274C7.65308 14.2696 6.94058 15.443 6.94214 16.9133C6.94631 26.6404 6.94735 36.4946 6.94526 46.4758C6.94526 46.5862 7.00047 46.6415 7.11089 46.6415C8.51297 46.6383 9.92026 46.6389 11.3328 46.643C13.4906 46.6493 13.5031 49.7508 11.3171 49.7633C9.89318 49.7717 8.46662 49.7722 7.03745 49.7649C7.02488 49.7647 7.01239 49.767 7.00073 49.7717C6.98907 49.7764 6.97848 49.7834 6.96958 49.7923C6.96069 49.8012 6.95368 49.8118 6.94896 49.8235C6.94425 49.8351 6.94193 49.8476 6.94214 49.8602C6.94943 52.1717 6.94891 54.5321 6.94058 56.9415C6.93589 58.379 7.68589 59.5477 9.04058 60.0821C9.39162 60.2206 10.0854 60.2894 11.1218 60.2883C30.7614 60.2758 50.3119 60.2732 69.7734 60.2805C71.1562 60.2805 72.4015 59.468 72.8656 58.1743C73.0052 57.7826 73.0723 57.2868 73.0671 56.6868C73.0463 54.3659 73.0427 52.0909 73.0562 49.8618C73.0562 49.8365 73.0462 49.8122 73.0283 49.7944C73.0104 49.7765 72.9862 49.7665 72.9609 49.7665C56.6192 49.7644 40.3005 49.7639 24.0046 49.7649C21.8093 49.7649 21.8421 46.6415 23.939 46.6415C40.2328 46.6435 56.5468 46.6446 72.8812 46.6446C72.9272 46.6446 72.9713 46.6263 73.0038 46.5938C73.0364 46.5613 73.0546 46.5171 73.0546 46.4711C73.0494 36.5211 73.0494 26.6467 73.0546 16.8477C73.0562 14.9602 71.6968 13.5571 69.8046 13.5508C68.7505 13.5467 67.6572 13.5441 66.525 13.543C66.4718 13.543 66.4281 13.5639 66.3937 13.6055L52.1531 30.9696C52.1416 30.983 52.1338 30.9991 52.1302 31.0166C52.1267 31.0341 52.1275 31.0523 52.1328 31.0696C52.5671 32.4706 52.689 33.8383 52.4984 35.1727C52.0218 38.504 49.5312 41.1993 46.1312 41.604C42.6093 42.0243 39.1031 40.6305 36.2124 43.3477ZM49.1125 21.1743C49.1056 21.1693 49.0979 21.1657 49.0897 21.1637C49.0814 21.1618 49.0729 21.1616 49.0646 21.163C49.0563 21.1645 49.0483 21.1676 49.0412 21.1722C49.0341 21.1769 49.0281 21.1829 49.0234 21.1899L46.1093 25.5446C46.1002 25.5581 46.0967 25.5747 46.0996 25.5907C46.1026 25.6068 46.1116 25.6211 46.125 25.6305L50.0312 28.5305C50.044 28.5403 50.06 28.5448 50.0761 28.5431C50.0921 28.5413 50.1068 28.5335 50.1171 28.5211L53.4406 24.4696C53.4458 24.4631 53.4497 24.4556 53.452 24.4475C53.4543 24.4395 53.455 24.431 53.454 24.4227C53.4529 24.4144 53.4503 24.4064 53.4461 24.3992C53.4419 24.3919 53.4363 24.3856 53.4296 24.3805L49.1125 21.1743ZM36.2921 31.7477C35.4031 34.1305 35.5765 37.0415 36.0906 39.5477C36.0968 39.579 36.1145 39.5873 36.1437 39.5727C37.875 38.7118 39.8265 38.4008 41.7203 38.4915C42.7973 38.5425 43.9062 38.5644 45.0468 38.5571C46.4864 38.5467 47.6281 38.0185 48.4718 36.9727C49.6656 35.4899 49.6796 33.5086 49.0656 31.7633C49.0468 31.7102 49.0151 31.667 48.9703 31.6336L43.475 27.5571C43.4303 27.5236 43.376 27.5055 43.3203 27.5055C40.2546 27.4743 37.414 28.7461 36.2921 31.7477ZM36.0218 71.1102C36.0197 71.119 36.0196 71.1281 36.0215 71.1369C36.0234 71.1457 36.0273 71.1539 36.0329 71.161C36.0384 71.1681 36.0455 71.1738 36.0536 71.1777C36.0617 71.1816 36.0706 71.1837 36.0796 71.1836H43.9203C43.9293 71.1837 43.9382 71.1816 43.9463 71.1777C43.9544 71.1738 43.9615 71.1681 43.967 71.161C43.9726 71.1539 43.9765 71.1457 43.9784 71.1369C43.9803 71.1281 43.9802 71.119 43.9781 71.1102L42.1531 63.4493C42.1499 63.4363 42.1425 63.4248 42.132 63.4166C42.1215 63.4084 42.1086 63.4039 42.0953 63.404L37.9046 63.4024C37.8913 63.4024 37.8784 63.4068 37.8679 63.415C37.8574 63.4233 37.85 63.4348 37.8468 63.4477L36.0218 71.1102ZM27.275 76.8899H52.7218C52.7354 76.8899 52.7488 76.8872 52.7613 76.882C52.7738 76.8769 52.7852 76.8693 52.7947 76.8597C52.8043 76.8501 52.8119 76.8387 52.8171 76.8262C52.8223 76.8137 52.825 76.8003 52.825 76.7868V76.0118C52.825 75.5576 52.6373 75.122 52.3032 74.8008C51.9692 74.4797 51.5161 74.2993 51.0437 74.2993H28.9531C28.4807 74.2993 28.0276 74.4797 27.6935 74.8008C27.3595 75.122 27.1718 75.5576 27.1718 76.0118V76.7868C27.1718 76.8003 27.1745 76.8137 27.1797 76.8262C27.1849 76.8387 27.1925 76.8501 27.202 76.8597C27.2116 76.8693 27.223 76.8769 27.2355 76.882C27.248 76.8872 27.2614 76.8899 27.275 76.8899Z" fill="#3B32FF"/>
<path id="Vector_2" d="M19.2155 48.204C19.2155 48.6167 19.0516 49.0125 18.7597 49.3044C18.4679 49.5962 18.072 49.7602 17.6593 49.7602C17.2465 49.7602 16.8507 49.5962 16.5588 49.3044C16.267 49.0125 16.103 48.6167 16.103 48.204C16.103 47.7912 16.267 47.3954 16.5588 47.1035C16.8507 46.8117 17.2465 46.6477 17.6593 46.6477C18.072 46.6477 18.4679 46.8117 18.7597 47.1035C19.0516 47.3954 19.2155 47.7912 19.2155 48.204Z" fill="#3B32FF"/>
</g>
<defs>
<clipPath id="clip0_78_1226">
<rect width="80" height="80" fill="white" transform="translate(0 0.0148926)"/>
</clipPath>
</defs>
</svg>
