<svg width="150" height="151" viewBox="0 0 150 151" fill="none" xmlns="http://www.w3.org/2000/svg">
<g id="web_3159281 1">
<path id="Vector" d="M150 18.1087V131.959C149.424 136.811 146.967 140.124 142.629 141.9C141.334 142.427 139.872 142.65 138.486 142.65C97.5312 142.648 55.2559 142.648 11.6602 142.65C5.3877 142.65 0.609375 138.191 0 131.974V17.9446C0.588867 12.6624 4.33887 8.29127 9.66211 7.50612C10.2344 7.42213 11.6562 7.38014 13.9277 7.38014C55.3457 7.38014 96.8213 7.37526 138.354 7.36549C140.464 7.36256 142.5 7.86647 144.328 8.95631C147.676 10.9446 149.566 13.9954 150 18.1087ZM143.751 16.7551C142.89 14.6956 140.933 13.2424 138.674 13.2424C95.3613 13.2385 52.9473 13.2385 11.4316 13.2424C8.23535 13.2424 5.8623 15.7796 5.85938 18.9612C5.85742 23.7014 5.8584 28.593 5.8623 33.636C5.8623 33.7102 5.89941 33.7473 5.97363 33.7473H144.062C144.083 33.7473 144.103 33.739 144.117 33.7242C144.132 33.7093 144.141 33.6892 144.141 33.6682C144.129 29.3128 144.136 24.7268 144.161 19.9104C144.169 18.4768 144.032 17.4251 143.751 16.7551ZM6.27539 133.363C7.21875 135.487 9.14649 136.784 11.4697 136.784C53.4775 136.765 95.7422 136.774 138.264 136.811C141.507 136.814 144.138 134.508 144.138 131.233C144.14 100.059 144.141 69.5559 144.141 39.7239C144.141 39.6928 144.128 39.663 144.106 39.641C144.084 39.619 144.055 39.6067 144.023 39.6067H5.91504C5.90734 39.6067 5.89972 39.6082 5.89262 39.6112C5.88551 39.6141 5.87905 39.6184 5.87361 39.6239C5.86817 39.6293 5.86385 39.6358 5.86091 39.6429C5.85796 39.65 5.85645 39.6576 5.85645 39.6653C5.86816 68.9446 5.86621 99.2376 5.85059 130.544C5.85059 131.784 5.99219 132.724 6.27539 133.363Z" fill="#3B32FF"/>
<path id="Vector_2" d="M127.234 22.7581C126.773 22.3596 126.355 21.927 125.98 21.4602C124.743 19.9192 125.487 17.6751 127.277 16.9924C129.018 16.3303 130.201 17.3528 131.297 18.5715C131.406 18.6946 131.517 18.6946 131.628 18.5715C131.958 18.2044 132.309 17.8596 132.68 17.5374C134.37 16.0725 136.872 16.8782 137.429 18.9964C137.851 20.5989 136.887 21.7327 135.747 22.6995C135.618 22.8089 135.618 22.9192 135.747 23.0305C136.153 23.384 136.525 23.7659 136.86 24.176C138.826 26.5696 136.187 29.9622 133.377 28.6614C132.665 28.3333 132.141 27.6829 131.587 27.1292C131.499 27.0413 131.412 27.0432 131.326 27.135C130.415 28.1077 129.542 29.054 128.086 28.9251C126.223 28.7581 124.966 27.012 125.505 25.1868C125.777 24.2581 126.566 23.6048 127.236 22.9602C127.25 22.9469 127.261 22.9309 127.269 22.9133C127.276 22.8956 127.28 22.8766 127.28 22.8575C127.28 22.8385 127.275 22.8198 127.267 22.8027C127.259 22.7855 127.248 22.7703 127.234 22.7581Z" fill="#3B32FF"/>
<path id="Vector_3" d="M119.502 26.1323C119.503 26.4994 119.431 26.8629 119.291 27.2023C119.152 27.5416 118.946 27.8501 118.687 28.1101C118.428 28.3701 118.12 28.5765 117.782 28.7175C117.443 28.8586 117.079 28.9315 116.712 28.9321L108.029 28.9473C107.662 28.9479 107.298 28.8763 106.959 28.7364C106.619 28.5966 106.311 28.3912 106.051 28.1321C105.791 27.8731 105.585 27.5653 105.444 27.2265C105.303 26.8876 105.23 26.5243 105.229 26.1572L105.229 25.917C105.228 25.55 105.3 25.1864 105.439 24.8471C105.579 24.5077 105.785 24.1993 106.044 23.9393C106.303 23.6793 106.611 23.4729 106.949 23.3318C107.288 23.1908 107.652 23.1179 108.019 23.1172L116.702 23.1021C117.069 23.1014 117.433 23.1731 117.772 23.3129C118.111 23.4528 118.42 23.6581 118.68 23.9172C118.94 24.1763 119.146 24.4841 119.287 24.8229C119.428 25.1618 119.501 25.5251 119.502 25.8921L119.502 26.1323Z" fill="#3B32FF"/>
<path id="Vector_4" d="M18.6591 67.6526C18.6591 69.0442 19.7958 70.0227 21.1845 70.0227C56.8056 70.0266 92.7851 70.0276 129.123 70.0257C130.643 70.0257 131.681 69.0384 131.678 67.43C131.674 63.0471 131.682 58.6936 131.701 54.3694C131.703 53.5315 131.584 52.887 131.344 52.4358C130.93 51.6663 130.215 51.2815 129.199 51.2815C119.844 51.2854 110.549 51.2854 101.314 51.2815C100.449 51.2815 99.8154 51.1878 99.413 51.0003C97.8398 50.2708 97.3154 48.2903 98.2089 46.8196C98.7734 45.8919 99.6855 45.427 100.945 45.4251C110.508 45.4173 119.862 45.4134 129.009 45.4134C133.869 45.4134 137.537 49.0169 137.546 53.8421C137.552 58.4846 137.548 63.1282 137.534 67.7727C137.519 72.4427 133.626 75.8762 129.035 75.8762C92.2753 75.8782 56.4511 75.8762 21.5624 75.8704C19.8281 75.8675 18.4394 75.6389 17.0361 74.8333C14.2529 73.2395 12.7587 70.4944 12.7851 67.3157C12.8202 62.927 12.8202 58.5764 12.7851 54.2639C12.7753 52.9846 12.9374 51.8723 13.2714 50.927C14.1532 48.4192 16.3095 46.3714 18.8847 45.7268C19.7304 45.5159 20.7236 45.4114 21.8642 45.4134C40.3525 45.4212 58.7353 45.4221 77.0126 45.4163C78.1454 45.4163 79.0068 45.8274 79.5966 46.6497C80.9589 48.551 79.6786 51.2815 77.2704 51.2815C58.8525 51.2854 40.1659 51.2854 21.2109 51.2815C19.6933 51.2815 18.6591 52.2776 18.6591 53.8509C18.665 58.5969 18.665 63.1975 18.6591 67.6526Z" fill="#3B32FF"/>
<path id="Vector_5" d="M91.8896 48.3606C91.8896 49.1353 91.5819 49.8782 91.0341 50.426C90.4864 50.9738 89.7434 51.2815 88.9688 51.2815C88.1941 51.2815 87.4511 50.9738 86.9034 50.426C86.3556 49.8782 86.0479 49.1353 86.0479 48.3606C86.0479 47.5859 86.3556 46.843 86.9034 46.2952C87.4511 45.7474 88.1941 45.4397 88.9688 45.4397C89.7434 45.4397 90.4864 45.7474 91.0341 46.2952C91.5819 46.843 91.8896 47.5859 91.8896 48.3606Z" fill="#3B32FF"/>
<path id="Vector_6" d="M90.7441 124.213C90.7441 126.397 89.8765 128.492 88.3321 130.036C86.7876 131.581 84.6929 132.448 82.5088 132.448H21.0381C18.8539 132.448 16.7592 131.581 15.2148 130.036C13.6704 128.492 12.8027 126.397 12.8027 124.213V87.6858C12.8027 85.5016 13.6704 83.4069 15.2148 81.8625C16.7592 80.3181 18.8539 79.4504 21.0381 79.4504H82.5088C84.6929 79.4504 86.7876 80.3181 88.3321 81.8625C89.8765 83.4069 90.7441 85.5016 90.7441 87.6858V124.213ZM84.8848 87.6887C84.8848 87.0578 84.6341 86.4527 84.188 86.0066C83.7419 85.5604 83.1368 85.3098 82.5059 85.3098H21.041C20.4101 85.3098 19.805 85.5604 19.3589 86.0066C18.9127 86.4527 18.6621 87.0578 18.6621 87.6887V124.21C18.6621 124.841 18.9127 125.446 19.3589 125.892C19.805 126.338 20.4101 126.589 21.041 126.589H82.5059C83.1368 126.589 83.7419 126.338 84.188 125.892C84.6341 125.446 84.8848 124.841 84.8848 124.21V87.6887Z" fill="#3B32FF"/>
<path id="Vector_7" d="M101.171 124.201V87.6975C101.171 86.6141 101.384 85.5413 101.799 84.5404C102.213 83.5394 102.821 82.63 103.587 81.8639C104.353 81.0978 105.263 80.4901 106.264 80.0755C107.265 79.6609 108.337 79.4475 109.421 79.4475L129.296 79.4504C130.379 79.4504 131.452 79.6638 132.453 80.0784C133.454 80.493 134.363 81.1007 135.13 81.8668C135.896 82.6329 136.503 83.5424 136.918 84.5433C137.333 85.5442 137.546 86.617 137.546 87.7004V124.198C137.546 125.282 137.333 126.355 136.918 127.356C136.503 128.357 135.896 129.266 135.13 130.032C134.363 130.798 133.454 131.406 132.453 131.82C131.452 132.235 130.379 132.448 129.296 132.448L109.421 132.451C107.233 132.451 105.134 131.582 103.587 130.035C102.04 128.488 101.171 126.389 101.171 124.201ZM107.03 124.204C107.03 124.837 107.282 125.443 107.729 125.891C108.176 126.338 108.783 126.589 109.415 126.589H129.296C129.928 126.589 130.535 126.338 130.982 125.891C131.429 125.443 131.681 124.837 131.681 124.204L131.684 87.6946C131.684 87.3814 131.622 87.0713 131.502 86.782C131.382 86.4926 131.207 86.2297 130.985 86.0083C130.764 85.7868 130.501 85.6112 130.211 85.4913C129.922 85.3715 129.612 85.3098 129.299 85.3098L109.415 85.3127C108.783 85.3127 108.176 85.564 107.729 86.0112C107.282 86.4585 107.03 87.065 107.03 87.6975V124.204Z" fill="#3B32FF"/>
<path id="Vector_8" d="M129.141 92.4055C129.141 93.1561 128.842 93.8759 128.312 94.4067C127.781 94.9374 127.061 95.2356 126.311 95.2356H112.406C111.656 95.2356 110.936 94.9374 110.405 94.4067C109.874 93.8759 109.576 93.1561 109.576 92.4055V92.2239C109.576 91.4733 109.874 90.7535 110.405 90.2227C110.936 89.692 111.656 89.3938 112.406 89.3938H126.311C127.061 89.3938 127.781 89.692 128.312 90.2227C128.842 90.7535 129.141 91.4733 129.141 92.2239V92.4055Z" fill="#3B32FF"/>
<path id="Vector_9" d="M34.9718 110.154C34.9634 110.145 34.9533 110.138 34.9423 110.134C34.9312 110.129 34.9193 110.127 34.9074 110.127C34.8954 110.127 34.8835 110.129 34.8725 110.134C34.8614 110.138 34.8514 110.145 34.8429 110.154C33.5128 111.48 32.1476 112.842 30.7472 114.24C29.7648 115.223 28.6681 115.476 27.4572 114.999C25.9074 114.39 25.1837 112.597 25.8986 111.056C26.0451 110.738 26.4093 110.289 26.9914 109.711C28.2179 108.494 29.4415 107.273 30.6623 106.046C30.6877 106.02 30.7019 105.986 30.7019 105.949C30.7019 105.913 30.6877 105.879 30.6623 105.853C29.2267 104.427 27.8488 103.048 26.5285 101.716C23.7101 98.8772 27.8263 94.6584 30.9406 97.8283C32.2316 99.1428 33.5275 100.443 34.8283 101.728C34.883 101.782 34.9386 101.782 34.9953 101.728C36.4718 100.23 37.8908 98.8137 39.2521 97.4797C40.7697 95.9943 43.216 96.6477 43.9894 98.6018C44.5255 99.9641 43.9191 101.127 42.8761 102.138C41.6027 103.374 40.3537 104.624 39.129 105.888C39.1094 105.909 39.0987 105.936 39.0992 105.965C39.0998 105.993 39.1115 106.02 39.132 106.04C40.4972 107.411 41.8722 108.797 43.257 110.197C46.049 113.019 41.9415 117.097 39.1466 114.331C37.7677 112.968 36.3761 111.575 34.9718 110.154Z" fill="#3B32FF"/>
<path id="Vector_10" d="M72.8699 105.867C72.8479 105.889 72.8356 105.919 72.8356 105.95C72.8356 105.981 72.8479 106.012 72.8699 106.034C74.2645 107.433 75.6238 108.789 76.9481 110.104C79.828 112.969 75.7235 117.129 72.8787 114.314C71.5291 112.98 70.1522 111.605 68.7479 110.189C68.7348 110.176 68.7193 110.165 68.7022 110.158C68.6851 110.151 68.6668 110.147 68.6483 110.147C68.6298 110.147 68.6114 110.151 68.5943 110.158C68.5772 110.165 68.5617 110.176 68.5487 110.189C67.1951 111.548 65.8338 112.91 64.4647 114.276C61.5672 117.167 57.3807 112.987 60.4276 110.01C61.8846 108.59 63.2069 107.27 64.3944 106.049C64.4226 106.02 64.4385 105.981 64.4385 105.941C64.4385 105.9 64.4226 105.861 64.3944 105.832C63.0643 104.504 61.7147 103.157 60.3455 101.792C59.4256 100.872 59.1522 99.8411 59.5252 98.6985C60.202 96.6302 62.7596 95.9915 64.3328 97.5178C65.5828 98.7327 66.9852 100.132 68.5399 101.716C68.5652 101.742 68.5998 101.757 68.6359 101.757C68.6721 101.758 68.7071 101.744 68.7332 101.719C69.9793 100.494 71.2449 99.221 72.5301 97.8987C73.5203 96.885 74.6864 96.3343 76.0369 96.8762C78.1405 97.7259 78.5184 100.213 76.9276 101.816C75.5272 103.224 74.1746 104.574 72.8699 105.867Z" fill="#3B32FF"/>
<path id="Vector_11" d="M129.141 104.915C129.139 105.665 128.84 106.385 128.308 106.914C127.777 107.444 127.056 107.741 126.306 107.74L112.401 107.716C112.03 107.715 111.662 107.641 111.319 107.498C110.976 107.355 110.664 107.146 110.402 106.883C110.139 106.62 109.931 106.308 109.79 105.964C109.648 105.62 109.576 105.252 109.576 104.881L109.576 104.699C109.578 103.948 109.877 103.229 110.409 102.699C110.941 102.169 111.661 101.872 112.411 101.874L126.316 101.898C126.687 101.899 127.055 101.973 127.398 102.115C127.742 102.258 128.053 102.467 128.316 102.73C128.578 102.994 128.786 103.306 128.927 103.65C129.069 103.993 129.142 104.361 129.141 104.733L129.141 104.915Z" fill="#3B32FF"/>
<path id="Vector_12" d="M129.138 117.367C129.139 117.739 129.066 118.107 128.924 118.45C128.783 118.794 128.575 119.106 128.313 119.369C128.05 119.633 127.739 119.842 127.396 119.985C127.052 120.127 126.685 120.201 126.313 120.202L112.414 120.226C111.664 120.227 110.943 119.931 110.412 119.401C109.88 118.871 109.581 118.152 109.579 117.401L109.579 117.219C109.578 116.848 109.651 116.48 109.793 116.136C109.934 115.792 110.142 115.48 110.405 115.217C110.667 114.954 110.978 114.745 111.322 114.602C111.665 114.459 112.033 114.385 112.404 114.384L126.303 114.36C127.053 114.359 127.774 114.656 128.305 115.186C128.837 115.715 129.136 116.435 129.138 117.185L129.138 117.367Z" fill="#3B32FF"/>
</g>
</svg>
