<svg width="25" height="25" viewBox="0 0 25 25" fill="none" xmlns="http://www.w3.org/2000/svg">
<path d="M3.41852 11.0149C3.41852 10.7387 3.64238 10.5149 3.91852 10.5149H17.2974L12.858 6.07544C12.7642 5.98168 12.7115 5.8545 12.7115 5.72189C12.7115 5.58928 12.7642 5.46211 12.858 5.36834L14.272 3.95434C14.4672 3.75908 14.7838 3.75908 14.9791 3.95434L22.6861 11.6613C22.7798 11.7551 22.8325 11.8823 22.8325 12.0149C22.8325 12.1475 22.7798 12.2747 22.6861 12.3684L14.9791 20.0754C14.8853 20.1692 14.7581 20.2219 14.6255 20.2219C14.4929 20.2219 14.3657 20.1692 14.272 20.0754L12.858 18.6614C12.6627 18.4662 12.6627 18.1496 12.858 17.9543L17.2974 13.5149H3.91852C3.64238 13.5149 3.41852 13.291 3.41852 13.0149V11.0149Z" fill="white" stroke="white" stroke-linejoin="round"/>
</svg>
