<svg width="888" height="747" viewBox="0 0 888 747" fill="none" xmlns="http://www.w3.org/2000/svg">
<path d="M172.422 -344.746C97.427 -290.076 38.7245 -221.726 15.1085 -133.026C-31.2408 41.111 43.7623 221.929 126.01 372.236C178.314 467.823 224.867 570.75 302.271 649.886C400.526 750.348 500.079 762.808 634.799 729.688C770.37 696.352 902.368 648.402 1027.64 586.991C1126.73 538.416 1252.14 464.491 1280.07 350.008C1287.26 320.509 1285.97 289.79 1283.46 259.67C1263.12 15.7983 1172.38 -233.781 1045.35 -441.995C938.197 -617.634 776.674 -599.587 599.068 -535.94C470.288 -489.794 298.374 -436.564 172.422 -344.746Z" fill="url(#paint0_linear_78_603)"/>
<defs>
<linearGradient id="paint0_linear_78_603" x1="908.495" y1="-564.011" x2="435.235" y2="735.398" gradientUnits="userSpaceOnUse">
<stop stop-color="#FFDEB8"/>
<stop offset="1" stop-color="#FFCC93"/>
</linearGradient>
</defs>
</svg>
