<svg width="100" height="101" viewBox="0 0 100 101" fill="none" xmlns="http://www.w3.org/2000/svg">
<g clip-path="url(#clip0_78_1302)">
<path d="M45.0761 0.0146484H90.8847C91.5995 0.120117 92.3358 0.155273 92.994 0.342773C95.8716 1.16178 97.9452 2.94368 99.2147 5.68848C99.3267 5.92936 99.4804 6.38769 99.6757 7.06348C99.8729 7.74316 99.8886 8.44433 99.9999 9.15527V34.6826C99.8925 35.3135 99.869 35.9873 99.7265 36.5576C99.3033 38.262 98.5071 39.7126 97.3378 40.9092C95.7714 42.5146 93.8072 43.4528 91.4452 43.7236C90.69 43.8096 90.1112 43.7406 89.7089 43.5166C89.0774 43.1663 88.7427 42.6286 88.705 41.9033C88.6659 41.1364 89.0194 40.5387 89.7655 40.1103C90.0533 39.945 90.4699 39.8519 91.0155 39.8311C93.3046 39.7432 95.3183 37.9736 95.8925 35.8232C96.0292 35.3089 96.0975 34.695 96.0975 33.9814C96.0962 26.04 96.093 17.8786 96.0878 9.49707C96.0858 7.01465 94.4999 4.80566 92.1112 4.13965C91.5683 3.9873 90.8834 3.91178 90.0565 3.91309C75.1125 3.9235 60.2929 3.92546 45.5976 3.91895C43.9023 3.91764 42.5129 4.46322 41.4296 5.55566C40.776 6.21322 40.3176 7.00293 40.0546 7.9248C39.9036 8.44954 39.8293 9.2972 39.8319 10.4678C39.845 18.4495 39.8489 26.3454 39.8437 34.1553C39.8417 37.4111 42.1855 39.8545 45.4511 39.8603C50.0644 39.8669 54.8599 39.8688 59.8378 39.8662C60.3183 39.8662 60.8261 40.0322 61.2187 40.3154C65.0272 43.055 68.705 45.7002 72.2519 48.251C72.3287 48.3057 72.3671 48.2861 72.3671 48.1924C72.3671 46.3825 72.3541 44.5413 72.328 42.6689C72.3163 41.8656 72.3814 41.3187 72.5233 41.0283C73.0019 40.0478 73.9062 39.8291 74.9257 39.8545C75.9504 39.8792 76.9914 39.8799 78.0487 39.8564C78.7193 39.8421 79.2349 39.9196 79.5956 40.0889C81.0233 40.7588 81.0546 42.8564 79.6249 43.542C78.7811 43.9482 77.371 43.7412 76.3651 43.7803C76.2909 43.7829 76.2538 43.8213 76.2538 43.8955C76.2668 46.6624 76.2812 49.3792 76.2968 52.0459C76.3085 53.8115 74.5194 54.6865 73.039 53.626C68.7239 50.5296 64.1835 47.2646 59.4179 43.8311C59.3606 43.7894 59.2961 43.7686 59.2245 43.7686C54.5422 43.7764 49.9055 43.7744 45.3144 43.7627C44.5787 43.7614 43.7909 43.6546 42.9511 43.4424C42.1256 43.2327 41.3463 42.9105 40.6132 42.4756C38.5077 41.2282 37.0839 39.4163 36.3417 37.04C36.1972 36.5778 36.1041 36.1273 36.0624 35.6885C36.0116 35.1514 35.9394 34.6084 35.9394 34.0713C35.9342 25.9202 35.9361 17.7393 35.9452 9.52832C35.9472 7.8916 36.3749 6.15527 37.203 4.74902C38.4869 2.56413 40.343 1.11361 42.7714 0.397461C43.1503 0.285482 43.55 0.204753 43.9706 0.155273C44.3378 0.112305 44.7063 0.0654297 45.0761 0.0146484Z" fill="#3B32FF"/>
<path d="M71.0841 24.3057C71.127 25.1807 71.129 26.1416 70.4278 26.751C69.4415 27.6104 67.8907 27.3213 67.379 26.0928C67.2253 25.723 67.157 25.2972 67.1739 24.8155C67.196 24.1566 67.1967 23.5381 67.1759 22.96C67.1407 21.9737 67.4591 21.0264 68.4337 20.6651C69.1407 20.4014 69.9063 20.5186 70.629 20.2276C72.1889 19.5987 73.1277 18.4997 73.4454 16.9307C73.9337 14.5284 72.3556 12.2354 69.9532 11.7705C67.4161 11.2803 64.8849 13.1455 64.7481 15.8018C64.7299 16.1807 64.6596 16.5238 64.5372 16.8311C64.1427 17.8311 62.9591 18.2881 61.9747 17.837C61.0743 17.4248 60.7306 16.5401 60.8575 15.5909C60.9317 15.042 60.9474 14.501 61.1036 13.9678C61.8757 11.3376 63.504 9.48734 65.9884 8.41703C67.3608 7.82588 68.8731 7.65987 70.5255 7.91898C72.0294 8.15336 73.3933 8.80375 74.6173 9.87015C77.7266 12.5772 78.3438 17.2588 76.0431 20.6846C74.8842 22.4099 73.2755 23.5564 71.2169 24.1241C71.1244 24.1488 71.0802 24.2093 71.0841 24.3057Z" fill="#3B32FF"/>
<path d="M71.0645 33.2822C71.0645 33.7935 70.8614 34.2838 70.4998 34.6453C70.1383 35.0069 69.648 35.21 69.1367 35.21C68.6255 35.21 68.1351 35.0069 67.7736 34.6453C67.4121 34.2838 67.209 33.7935 67.209 33.2822C67.209 32.771 67.4121 32.2806 67.7736 31.9191C68.1351 31.5576 68.6255 31.3545 69.1367 31.3545C69.648 31.3545 70.1383 31.5576 70.4998 31.9191C70.8614 32.2806 71.0645 32.771 71.0645 33.2822Z" fill="#3B32FF"/>
<path d="M87.0273 41.9502C87.0273 42.2034 86.9775 42.454 86.8806 42.6879C86.7837 42.9218 86.6417 43.1343 86.4627 43.3133C86.2837 43.4923 86.0712 43.6343 85.8373 43.7312C85.6034 43.8281 85.3528 43.8779 85.0996 43.8779C84.5883 43.8779 84.098 43.6748 83.7365 43.3133C83.375 42.9518 83.1719 42.4615 83.1719 41.9502C83.1719 41.4389 83.375 40.9486 83.7365 40.5871C84.098 40.2256 84.5883 40.0225 85.0996 40.0225C85.3528 40.0225 85.6034 40.0723 85.8373 40.1692C86.0712 40.2661 86.2837 40.4081 86.4627 40.5871C86.6417 40.7661 86.7837 40.9786 86.8806 41.2125C86.9775 41.4464 87.0273 41.697 87.0273 41.9502Z" fill="#3B32FF"/>
<path d="M27.6816 100.015H27.2891C25.4883 99.5694 25.5449 98.2647 25.5684 96.583C25.5983 94.2653 25.5989 91.9144 25.5703 89.5303C25.5703 89.5158 25.5645 89.5019 25.5543 89.4916C25.544 89.4814 25.5301 89.4756 25.5156 89.4756C24.724 89.46 23.9056 89.4606 23.0605 89.4776C22.5684 89.488 22.1549 89.43 21.8203 89.3037C20.1914 88.6885 20.2031 86.3447 21.8242 85.7236C22.1458 85.6 22.5397 85.5427 23.0059 85.5518C24.278 85.5752 25.526 85.5726 26.75 85.544C27.8066 85.5186 28.8652 85.6885 29.291 86.7471C29.4381 87.1156 29.5072 87.7061 29.498 88.5186C29.4785 90.4326 29.4766 92.3181 29.4922 94.1748C29.4935 94.2608 29.5293 94.279 29.5996 94.2295C33.4915 91.4964 37.4049 88.7471 41.3398 85.9815C41.7226 85.7132 42.1432 85.5778 42.6015 85.5752C46.7903 85.5531 51.179 85.5518 55.7676 85.5713C56.5384 85.5752 57.1211 85.5251 57.5156 85.4209C59.0898 85.0069 60.1543 83.4971 60.1543 81.8994C60.1569 73.4085 60.1569 64.9177 60.1543 56.4268C60.1543 55.5648 60.112 54.9717 60.0273 54.6475C59.5918 52.9795 58.0879 51.9697 56.3613 51.9697C39.8288 51.9632 23.584 51.9652 7.62695 51.9756C5.49609 51.9756 3.91406 53.5674 3.91406 55.6787C3.90885 64.0238 3.90625 72.3688 3.90625 80.7139C3.90625 82.0446 3.99674 82.9111 4.17773 83.3135C4.76953 84.6299 5.82617 85.3819 7.22851 85.5244C7.73242 85.5752 8.05729 85.6332 8.20312 85.6983C9.21875 86.1514 9.73437 87.2237 9.29492 88.2588C8.85351 89.292 7.86914 89.5576 6.83008 89.4268C3.98242 89.0648 1.92122 87.5804 0.646484 84.9737C0.30013 84.2666 0.0846354 83.335 0 82.1787V55.3272C0.136719 53.249 0.907552 51.5329 2.3125 50.1787C3.78385 48.7621 5.66015 48.055 7.9414 48.0576C24.2786 48.0694 39.8236 48.0661 54.5762 48.0479C56.3795 48.0466 57.6302 48.1299 58.3281 48.2979C61.0469 48.9541 63.2637 51.1865 63.8672 53.9483C64.0026 54.5654 64.0696 55.5055 64.0683 56.7686C64.0644 65.1774 64.0605 73.5036 64.0566 81.7471C64.0566 82.8174 63.8672 83.8239 63.4883 84.7666C62.5976 86.9834 60.6777 88.626 58.3691 89.2217C57.6595 89.4053 56.4824 89.4919 54.8379 89.4815C50.9668 89.4593 47.1068 89.4574 43.2578 89.4756C43.1955 89.4757 43.1348 89.4947 43.084 89.5303C38.3014 92.8897 33.5202 96.2471 28.7402 99.6026C28.4486 99.8057 28.0957 99.9431 27.6816 100.015Z" fill="#3B32FF"/>
<path d="M52.0254 59.8506C52.0254 60.3619 51.8223 60.8522 51.4608 61.2137C51.0993 61.5752 50.6089 61.7783 50.0977 61.7783H14.1602C13.6489 61.7783 13.1586 61.5752 12.797 61.2137C12.4355 60.8522 12.2324 60.3619 12.2324 59.8506V59.8076C12.2324 59.2964 12.4355 58.806 12.797 58.4445C13.1586 58.083 13.6489 57.8799 14.1602 57.8799H50.0977C50.6089 57.8799 51.0993 58.083 51.4608 58.4445C51.8223 58.806 52.0254 59.2964 52.0254 59.8076V59.8506Z" fill="#3B32FF"/>
<path d="M52.0234 69.5459C52.0234 69.799 51.9736 70.0497 51.8767 70.2836C51.7798 70.5175 51.6378 70.73 51.4588 70.909C51.2798 71.088 51.0673 71.23 50.8334 71.3269C50.5995 71.4238 50.3489 71.4736 50.0957 71.4736H14.1621C13.909 71.4736 13.6583 71.4238 13.4244 71.3269C13.1905 71.23 12.978 71.088 12.799 70.909C12.62 70.73 12.478 70.5175 12.3811 70.2836C12.2842 70.0497 12.2344 69.799 12.2344 69.5459V69.499C12.2344 69.2459 12.2842 68.9952 12.3811 68.7613C12.478 68.5274 12.62 68.3149 12.799 68.1359C12.978 67.9569 13.1905 67.8149 13.4244 67.718C13.6583 67.6211 13.909 67.5713 14.1621 67.5713H50.0957C50.3489 67.5713 50.5995 67.6211 50.8334 67.718C51.0673 67.8149 51.2798 67.9569 51.4588 68.1359C51.6378 68.3149 51.7798 68.5274 51.8767 68.7613C51.9736 68.9952 52.0234 69.2459 52.0234 69.499V69.5459Z" fill="#3B32FF"/>
<path d="M52.0254 78.6006C52.0254 79.1119 51.8223 79.6022 51.4608 79.9637C51.0993 80.3252 50.6089 80.5283 50.0977 80.5283H14.1602C13.6489 80.5283 13.1586 80.3252 12.797 79.9637C12.4355 79.6022 12.2324 79.1119 12.2324 78.6006V78.5576C12.2324 78.0464 12.4355 77.556 12.797 77.1945C13.1586 76.833 13.6489 76.6299 14.1602 76.6299H50.0977C50.6089 76.6299 51.0993 76.833 51.4608 77.1945C51.8223 77.556 52.0254 78.0464 52.0254 78.5576V78.6006Z" fill="#3B32FF"/>
<path d="M17.4883 87.376C17.4883 87.8872 17.2852 88.3776 16.9237 88.7391C16.5621 89.1006 16.0718 89.3037 15.5605 89.3037C15.0493 89.3037 14.559 89.1006 14.1974 88.7391C13.8359 88.3776 13.6328 87.8872 13.6328 87.376C13.6328 86.8647 13.8359 86.3744 14.1974 86.0129C14.559 85.6513 15.0493 85.4482 15.5605 85.4482C16.0718 85.4482 16.5621 85.6513 16.9237 86.0129C17.2852 86.3744 17.4883 86.8647 17.4883 87.376Z" fill="#3B32FF"/>
</g>
<defs>
<clipPath id="clip0_78_1302">
<rect width="100" height="100" fill="white" transform="translate(0 0.0146484)"/>
</clipPath>
</defs>
</svg>
