<svg width="150" height="151" viewBox="0 0 150 151" fill="none" xmlns="http://www.w3.org/2000/svg">
<g id="laptop_3159167 2">
<path id="Vector" d="M150 124.172V136.336C149.669 137.868 148.521 138.914 146.979 138.911C99.04 138.88 51.0859 138.881 3.11719 138.914C1.50586 138.914 0.333984 137.939 0 136.31V124.075C0.783203 119.277 3.56641 116.497 8.34961 115.738C8.44531 115.722 8.49316 115.664 8.49316 115.565C8.49316 91.885 8.49121 68.4143 8.4873 45.1526C8.4873 40.7229 11.3936 36.9671 15.6562 35.6399C16.6406 35.3333 18.46 35.2005 21.1143 35.2415C23.8818 35.2825 26.6553 35.2845 29.4346 35.2473C29.4971 35.2473 29.5283 35.2151 29.5283 35.1507C29.5361 30.469 29.5352 26.0042 29.5254 21.7561C29.5156 17.5706 31.1846 14.4886 34.5322 12.51C36.5215 11.3352 38.2471 11.1214 40.6787 11.1243C65.2568 11.1321 88.5771 11.137 110.64 11.1389C112.377 11.1389 114.533 11.7688 115.969 12.7854C118.945 14.8948 120.44 17.7298 120.454 21.2903C120.472 25.9016 120.475 30.5198 120.463 35.1448C120.463 35.1736 120.474 35.2011 120.495 35.2215C120.515 35.2418 120.543 35.2532 120.571 35.2532C123.468 35.2845 126.271 35.2805 128.979 35.2415C131.55 35.2063 133.291 35.3274 134.203 35.6048C138.697 36.9671 141.513 40.7171 141.513 45.3313C141.509 69.0032 141.508 92.4124 141.51 115.559C141.51 115.657 141.558 115.713 141.653 115.729C146.481 116.51 149.264 119.324 150 124.172ZM39.3867 17.0071C37.2861 17.01 35.4551 18.8821 35.4141 20.9827C35.3848 22.5061 35.3799 24.094 35.3994 25.7464C35.3994 25.7583 35.4018 25.7701 35.4065 25.7811C35.4113 25.7921 35.4182 25.8022 35.4269 25.8106C35.4356 25.819 35.4459 25.8257 35.4573 25.8303C35.4687 25.8348 35.4809 25.8372 35.4932 25.8372H114.422C114.529 25.8372 114.584 25.7835 114.586 25.6761C114.625 24.1839 114.627 22.6907 114.592 21.1966C114.549 19.4114 113.75 18.1419 112.195 17.388C111.635 17.1165 110.78 16.9807 109.632 16.9807C85.9443 16.9886 62.5293 16.9973 39.3867 17.0071ZM114.501 100.568C114.529 100.568 114.556 100.557 114.576 100.537C114.595 100.517 114.606 100.49 114.606 100.462V31.802C114.606 31.7741 114.595 31.7472 114.576 31.7275C114.556 31.7077 114.529 31.6966 114.501 31.6966H35.499C35.4711 31.6966 35.4442 31.7077 35.4244 31.7275C35.4047 31.7472 35.3936 31.7741 35.3936 31.802V100.462C35.3936 100.49 35.4047 100.517 35.4244 100.537C35.4442 100.557 35.4711 100.568 35.499 100.568H114.501ZM17.0156 41.385C15.4775 41.9095 14.3525 43.4505 14.3525 45.138C14.3506 63.5598 14.3496 81.9915 14.3496 100.433C14.3496 100.451 14.3531 100.468 14.3599 100.484C14.3666 100.501 14.3766 100.516 14.3891 100.528C14.4016 100.541 14.4165 100.551 14.4328 100.557C14.4492 100.564 14.4667 100.568 14.4844 100.568H29.4551C29.4761 100.568 29.4962 100.56 29.511 100.545C29.5258 100.531 29.5342 100.512 29.5342 100.491V41.2503C29.5342 41.2114 29.5184 41.1742 29.4904 41.1467C29.4624 41.1192 29.4244 41.1038 29.3848 41.1038C26.2715 41.1409 23.082 41.138 19.8164 41.095C18.5703 41.0774 17.6367 41.1741 17.0156 41.385ZM135.322 43.5852C134.648 41.9915 133.154 41.1243 131.396 41.1243C127.785 41.1223 124.184 41.1214 120.592 41.1214C120.559 41.1214 120.528 41.1346 120.505 41.1583C120.482 41.1819 120.469 41.2139 120.469 41.2473L120.466 100.453C120.466 100.484 120.478 100.513 120.499 100.534C120.521 100.556 120.55 100.568 120.58 100.568H135.489C135.591 100.568 135.642 100.517 135.642 100.415C135.653 82.3196 135.654 64.2288 135.645 46.1429C135.645 44.9456 135.537 44.093 135.322 43.5852ZM135.65 106.515C135.65 106.492 135.641 106.469 135.625 106.453C135.608 106.436 135.586 106.427 135.562 106.427H14.4375C14.4142 106.427 14.3918 106.436 14.3754 106.453C14.3589 106.469 14.3496 106.492 14.3496 106.515V115.638C14.3496 115.661 14.3589 115.684 14.3754 115.7C14.3918 115.717 14.4142 115.726 14.4375 115.726H135.562C135.586 115.726 135.608 115.717 135.625 115.7C135.641 115.684 135.65 115.661 135.65 115.638V106.515ZM65.2881 130.392C61.2686 130.401 57.7471 127.723 56.8594 123.785C56.7012 123.094 56.5762 122.41 56.4844 121.735C56.4707 121.635 56.4131 121.585 56.3115 121.585C40.7627 121.585 25.1143 121.583 9.36621 121.579C7.97461 121.579 6.81445 122.198 6.17578 123.481C5.94531 123.944 5.83496 124.632 5.84473 125.546C5.87402 128.38 5.87598 130.824 5.85059 132.876C5.85059 132.984 5.9043 133.037 6.01172 133.037H143.985C144.101 133.037 144.157 132.98 144.155 132.865C144.128 130.495 144.128 127.99 144.155 125.347C144.176 123.311 142.992 121.591 140.795 121.591C125.717 121.581 110.018 121.581 93.6973 121.591C93.5977 121.591 93.5391 121.641 93.5215 121.741C93.3604 122.693 93.2314 123.621 92.9092 124.55C91.958 127.304 90.0752 129.134 87.2607 130.04C86.4814 130.29 85.1484 130.412 83.2617 130.407C77.1719 130.383 71.1807 130.378 65.2881 130.392ZM84.7207 124.538C86.4258 124.544 87.3896 123.343 87.583 121.741C87.5947 121.635 87.5479 121.582 87.4424 121.582H62.5605C62.4629 121.582 62.4189 121.631 62.4287 121.729C62.5811 123.484 63.6826 124.547 65.4141 124.541C71.4785 124.516 77.9141 124.515 84.7207 124.538Z" fill="#3B32FF"/>
<path id="Vector_2" d="M76.0355 61.2264C75.9695 61.5968 75.8312 61.9506 75.6285 62.2676C75.4258 62.5846 75.1626 62.8586 74.854 63.0738C74.5454 63.2891 74.1974 63.4415 73.8299 63.5223C73.4624 63.6031 73.0826 63.6107 72.7122 63.5447L72.591 63.5232C71.8429 63.3899 71.1784 62.9649 70.7436 62.3417C70.3088 61.7184 70.1394 60.948 70.2727 60.1999L73.9646 39.4734C74.0306 39.1029 74.1689 38.7491 74.3716 38.4321C74.5743 38.1151 74.8375 37.8412 75.1461 37.6259C75.4547 37.4106 75.8027 37.2582 76.1702 37.1774C76.5377 37.0966 76.9175 37.089 77.2879 37.155L77.4091 37.1766C78.1572 37.3099 78.8218 37.7349 79.2565 38.3581C79.6913 38.9813 79.8607 39.7518 79.7274 40.4999L76.0355 61.2264Z" fill="#3B32FF"/>
<path id="Vector_3" d="M60.5098 50.3382C60.4473 50.6096 60.5078 50.8528 60.6914 51.0677C62.4102 53.0637 64.125 55.054 65.836 57.0384C67.1104 58.5149 66.7236 60.7239 64.9834 61.6057C63.3867 62.4143 62.0215 61.6848 60.958 60.3841C59.8389 59.0169 58.7129 57.7102 57.5801 56.4641C56.2617 55.011 55.4326 53.846 55.0928 52.969C54.4678 51.3518 54.4717 49.7102 55.1045 48.0442C55.4365 47.1731 56.2539 46.0266 57.5567 44.6048C58.7071 43.3489 59.7852 42.096 60.791 40.846C61.4356 40.0432 62.043 39.5266 62.6133 39.2962C64.9072 38.3675 67.21 40.6468 66.4336 42.9114C66.2598 43.4212 65.8428 44.0471 65.1826 44.7893C63.5694 46.6038 62.0674 48.3421 60.6768 50.0042C60.5959 50.1005 60.5387 50.2149 60.5098 50.3382Z" fill="#3B32FF"/>
<path id="Vector_4" d="M94.9687 48.2522C95.8447 50.6956 95.2324 53.2122 93.5332 55.1663C91.7617 57.2014 90.1093 59.1077 88.5761 60.885C87.2021 62.4788 84.7207 62.218 83.7334 60.3255C83.042 59.0071 83.4873 57.7884 84.416 56.7307C86.0879 54.8264 87.6953 52.9651 89.2382 51.1468C89.6035 50.7151 89.6005 50.2854 89.2295 49.8577C87.4658 47.8264 85.7656 45.8528 84.1289 43.9368C81.5859 40.9602 86.042 37.137 88.6523 40.222C90.1757 42.0188 91.6552 43.7229 93.0908 45.3343C94.0185 46.3753 94.6445 47.3479 94.9687 48.2522Z" fill="#3B32FF"/>
<path id="Vector_5" d="M101.921 71.5989C101.921 72.3658 101.616 73.1013 101.074 73.6435C100.532 74.1858 99.7962 74.4905 99.0293 74.4905H50.9648C50.1979 74.4905 49.4625 74.1858 48.9202 73.6435C48.3779 73.1013 48.0732 72.3658 48.0732 71.5989V71.5286C48.0732 70.7617 48.3779 70.0262 48.9202 69.4839C49.4625 68.9416 50.1979 68.637 50.9648 68.637H99.0293C99.7962 68.637 100.532 68.9416 101.074 69.4839C101.616 70.0262 101.921 70.7617 101.921 71.5286V71.5989Z" fill="#3B32FF"/>
<path id="Vector_6" d="M90.2022 81.3079C90.2022 82.0717 89.8987 82.8042 89.3587 83.3442C88.8186 83.8843 88.0861 84.1877 87.3223 84.1877H50.959C50.1952 84.1877 49.4627 83.8843 48.9226 83.3442C48.3825 82.8042 48.0791 82.0717 48.0791 81.3079V81.2141C48.0791 80.4503 48.3825 79.7178 48.9226 79.1777C49.4627 78.6376 50.1952 78.3342 50.959 78.3342H87.3223C88.0861 78.3342 88.8186 78.6376 89.3587 79.1777C89.8987 79.7178 90.2022 80.4503 90.2022 81.2141V81.3079Z" fill="#3B32FF"/>
<path id="Vector_7" d="M101.93 81.2698C101.93 82.0444 101.622 82.7874 101.074 83.3352C100.526 83.8829 99.7835 84.1907 99.0088 84.1907C98.2341 84.1907 97.4912 83.8829 96.9434 83.3352C96.3956 82.7874 96.0879 82.0444 96.0879 81.2698C96.0879 80.8862 96.1634 80.5064 96.3102 80.152C96.457 79.7976 96.6722 79.4756 96.9434 79.2044C97.2146 78.9332 97.5366 78.718 97.891 78.5712C98.2454 78.4244 98.6252 78.3489 99.0088 78.3489C99.3924 78.3489 99.7722 78.4244 100.127 78.5712C100.481 78.718 100.803 78.9332 101.074 79.2044C101.345 79.4756 101.561 79.7976 101.707 80.152C101.854 80.5064 101.93 80.8862 101.93 81.2698Z" fill="#3B32FF"/>
<path id="Vector_8" d="M101.921 91.011C101.921 91.3911 101.846 91.7675 101.701 92.1187C101.555 92.4699 101.342 92.7889 101.073 93.0577C100.804 93.3265 100.485 93.5397 100.134 93.6852C99.7829 93.8306 99.4065 93.9055 99.0264 93.9055H50.9736C50.5935 93.9055 50.2171 93.8306 49.8659 93.6852C49.5148 93.5397 49.1957 93.3265 48.9269 93.0577C48.6581 92.7889 48.4449 92.4699 48.2994 92.1187C48.154 91.7675 48.0791 91.3911 48.0791 91.011V90.9407C48.0791 90.173 48.3841 89.4368 48.9269 88.8939C49.4697 88.3511 50.206 88.0461 50.9736 88.0461H99.0264C99.794 88.0461 100.53 88.3511 101.073 88.8939C101.616 89.4368 101.921 90.173 101.921 90.9407V91.011Z" fill="#3B32FF"/>
</g>
</svg>
