<svg width="214" height="80" viewBox="0 0 214 80" fill="none" xmlns="http://www.w3.org/2000/svg">
<path d="M21.147 36.936C19.964 35.63 19.352 33.991 19.355 32.34C19.352 30.689 19.963 29.05 21.147 27.744L33.008 15.883C35.683 13.208 35.683 8.86999 33.008 6.19399C30.333 3.51899 25.995 3.51899 23.319 6.19399L2.15203 27.362C2.10503 27.406 2.05102 27.436 2.00502 27.482C0.664023 28.823 -0.00398214 30.582 1.7857e-05 32.34C-0.00398214 34.098 0.664023 35.857 2.00502 37.198C2.05102 37.244 2.10503 37.274 2.15203 37.318L23.32 58.486C25.995 61.161 30.333 61.161 33.009 58.486C35.684 55.811 35.684 51.473 33.009 48.797L21.147 36.936Z" fill="#FF9A28"/>
<path d="M52.0382 52.2551C53.2212 50.9491 53.8332 49.3101 53.8302 47.6591C53.8332 46.0081 53.2222 44.3691 52.0382 43.0631L40.1771 31.2021C37.5021 28.5271 37.5021 24.1891 40.1771 21.5141C42.8521 18.8391 47.1901 18.8391 49.8661 21.5141L71.0341 42.6821C71.0811 42.7261 71.1351 42.7561 71.1811 42.8021C72.5221 44.1431 73.1902 45.9021 73.1861 47.6601C73.1902 49.4181 72.5221 51.1771 71.1811 52.5181C71.1351 52.5641 71.0811 52.5941 71.0341 52.6381L49.8661 73.8061C47.1911 76.4811 42.8531 76.4811 40.1771 73.8061C37.5021 71.1311 37.5021 66.7931 40.1771 64.1181L52.0382 52.2551Z" fill="#3B32FF"/>
<path d="M84.9559 50V29.6364H89.2613V46.4503H97.9914V50H84.9559ZM105.118 50.2884C104.144 50.2884 103.275 50.1193 102.513 49.7812C101.751 49.4366 101.148 48.9295 100.703 48.2599C100.266 47.5838 100.047 46.742 100.047 45.7344C100.047 44.8859 100.203 44.1733 100.515 43.5966C100.826 43.0199 101.25 42.5559 101.787 42.2045C102.324 41.8532 102.934 41.5881 103.617 41.4091C104.306 41.2301 105.029 41.1042 105.784 41.0312C106.673 40.9384 107.389 40.8523 107.932 40.7727C108.476 40.6866 108.87 40.5606 109.115 40.3949C109.361 40.2292 109.483 39.9839 109.483 39.6591V39.5994C109.483 38.9697 109.284 38.4825 108.887 38.1378C108.496 37.7931 107.939 37.6207 107.216 37.6207C106.454 37.6207 105.847 37.7898 105.397 38.1278C104.946 38.4593 104.648 38.8769 104.502 39.3807L100.584 39.0625C100.783 38.1345 101.174 37.3324 101.757 36.6562C102.341 35.9735 103.093 35.4498 104.015 35.0852C104.943 34.714 106.016 34.5284 107.236 34.5284C108.085 34.5284 108.897 34.6278 109.672 34.8267C110.454 35.0256 111.147 35.3338 111.75 35.7514C112.36 36.169 112.841 36.706 113.192 37.3622C113.543 38.0118 113.719 38.7907 113.719 39.6989V50H109.702V47.8821H109.583C109.337 48.3594 109.009 48.7803 108.598 49.1449C108.187 49.5028 107.693 49.7846 107.117 49.9901C106.54 50.1889 105.874 50.2884 105.118 50.2884ZM106.331 47.3651C106.954 47.3651 107.505 47.2424 107.982 46.9972C108.459 46.7453 108.834 46.4072 109.105 45.983C109.377 45.5587 109.513 45.0781 109.513 44.5412V42.9205C109.381 43.0066 109.198 43.0862 108.966 43.1591C108.741 43.2254 108.486 43.2884 108.201 43.348C107.916 43.401 107.631 43.4508 107.345 43.4972C107.06 43.5369 106.802 43.5734 106.57 43.6065C106.073 43.6795 105.639 43.7955 105.267 43.9545C104.896 44.1136 104.608 44.3291 104.402 44.6009C104.197 44.866 104.094 45.1974 104.094 45.5952C104.094 46.1719 104.303 46.6127 104.72 46.9176C105.145 47.2159 105.682 47.3651 106.331 47.3651ZM129.713 39.0824L125.835 39.321C125.769 38.9896 125.626 38.6913 125.407 38.4261C125.189 38.1544 124.9 37.9389 124.542 37.7798C124.191 37.6141 123.77 37.5312 123.279 37.5312C122.623 37.5312 122.07 37.6705 121.619 37.9489C121.168 38.2206 120.943 38.5852 120.943 39.0426C120.943 39.4072 121.089 39.7154 121.38 39.9673C121.672 40.2192 122.172 40.4214 122.882 40.5739L125.646 41.1307C127.131 41.4356 128.238 41.9261 128.967 42.6023C129.696 43.2784 130.061 44.1667 130.061 45.267C130.061 46.268 129.766 47.1463 129.176 47.902C128.592 48.6577 127.79 49.2476 126.769 49.6719C125.755 50.0895 124.585 50.2983 123.26 50.2983C121.238 50.2983 119.627 49.8774 118.427 49.0355C117.234 48.187 116.535 47.0336 116.329 45.5753L120.495 45.3565C120.621 45.973 120.926 46.4437 121.41 46.7685C121.894 47.0866 122.514 47.2457 123.269 47.2457C124.012 47.2457 124.609 47.1032 125.059 46.8182C125.517 46.5265 125.749 46.152 125.755 45.6946C125.749 45.3101 125.586 44.9953 125.268 44.75C124.95 44.4981 124.459 44.3059 123.796 44.1733L121.152 43.6463C119.66 43.348 118.55 42.831 117.821 42.0952C117.098 41.3594 116.737 40.4214 116.737 39.2812C116.737 38.3002 117.002 37.455 117.532 36.7457C118.069 36.0365 118.822 35.4896 119.789 35.1051C120.764 34.7206 121.904 34.5284 123.21 34.5284C125.139 34.5284 126.657 34.9361 127.764 35.7514C128.877 36.5668 129.527 37.6771 129.713 39.0824ZM140.852 34.7273V37.9091H131.654V34.7273H140.852ZM133.742 31.0682H137.978V45.3068C137.978 45.6979 138.038 46.0028 138.157 46.2216C138.276 46.4337 138.442 46.5829 138.654 46.669C138.873 46.7552 139.125 46.7983 139.41 46.7983C139.609 46.7983 139.807 46.7817 140.006 46.7486C140.205 46.7088 140.358 46.679 140.464 46.6591L141.13 49.8111C140.918 49.8774 140.62 49.9536 140.235 50.0398C139.851 50.1326 139.383 50.1889 138.833 50.2088C137.812 50.2486 136.917 50.1127 136.148 49.8011C135.386 49.4896 134.793 49.0057 134.369 48.3494C133.944 47.6932 133.736 46.8646 133.742 45.8636V31.0682Z" fill="#FF9A28"/>
<path d="M148.165 50L142.338 29.6364H147.041L150.412 43.7855H150.581L154.3 29.6364H158.327L162.035 43.8153H162.214L165.585 29.6364H170.288L164.462 50H160.266L156.388 36.6861H156.229L152.361 50H148.165ZM177.833 50.2983C176.262 50.2983 174.909 49.9801 173.776 49.3438C172.649 48.7008 171.781 47.7926 171.171 46.6193C170.561 45.4394 170.256 44.044 170.256 42.4332C170.256 40.8622 170.561 39.4834 171.171 38.2969C171.781 37.1103 172.639 36.1856 173.746 35.5227C174.86 34.8598 176.166 34.5284 177.664 34.5284C178.671 34.5284 179.609 34.6908 180.478 35.0156C181.353 35.3338 182.115 35.8144 182.765 36.4574C183.421 37.1004 183.931 37.9091 184.296 38.8835C184.66 39.8513 184.843 40.9848 184.843 42.2841V43.4474H171.946V40.8224H180.855C180.855 40.2126 180.723 39.6723 180.458 39.2017C180.193 38.7311 179.825 38.3632 179.354 38.098C178.89 37.8262 178.35 37.6903 177.733 37.6903C177.09 37.6903 176.52 37.8395 176.023 38.1378C175.533 38.4295 175.148 38.8239 174.87 39.321C174.591 39.8116 174.449 40.3584 174.442 40.9616V43.4574C174.442 44.2131 174.581 44.866 174.86 45.4162C175.145 45.9664 175.546 46.3906 176.063 46.6889C176.58 46.9872 177.193 47.1364 177.902 47.1364C178.373 47.1364 178.804 47.0701 179.195 46.9375C179.586 46.8049 179.921 46.6061 180.199 46.3409C180.478 46.0758 180.69 45.7509 180.836 45.3665L184.753 45.625C184.554 46.5663 184.147 47.3883 183.53 48.0909C182.92 48.7869 182.131 49.3305 181.164 49.7216C180.202 50.1061 179.092 50.2983 177.833 50.2983ZM200.314 39.0824L196.436 39.321C196.37 38.9896 196.228 38.6913 196.009 38.4261C195.79 38.1544 195.502 37.9389 195.144 37.7798C194.792 37.6141 194.372 37.5312 193.881 37.5312C193.225 37.5312 192.671 37.6705 192.22 37.9489C191.77 38.2206 191.544 38.5852 191.544 39.0426C191.544 39.4072 191.69 39.7154 191.982 39.9673C192.274 40.2192 192.774 40.4214 193.483 40.5739L196.247 41.1307C197.732 41.4356 198.839 41.9261 199.568 42.6023C200.298 43.2784 200.662 44.1667 200.662 45.267C200.662 46.268 200.367 47.1463 199.777 47.902C199.194 48.6577 198.392 49.2476 197.371 49.6719C196.357 50.0895 195.187 50.2983 193.861 50.2983C191.839 50.2983 190.229 49.8774 189.029 49.0355C187.836 48.187 187.136 47.0336 186.931 45.5753L191.097 45.3565C191.223 45.973 191.528 46.4437 192.012 46.7685C192.496 47.0866 193.115 47.2457 193.871 47.2457C194.613 47.2457 195.21 47.1032 195.661 46.8182C196.118 46.5265 196.35 46.152 196.357 45.6946C196.35 45.3101 196.188 44.9953 195.87 44.75C195.551 44.4981 195.061 44.3059 194.398 44.1733L191.753 43.6463C190.262 43.348 189.151 42.831 188.422 42.0952C187.7 41.3594 187.338 40.4214 187.338 39.2812C187.338 38.3002 187.604 37.455 188.134 36.7457C188.671 36.0365 189.423 35.4896 190.391 35.1051C191.365 34.7206 192.506 34.5284 193.811 34.5284C195.74 34.5284 197.258 34.9361 198.365 35.7514C199.479 36.5668 200.129 37.6771 200.314 39.0824ZM211.453 34.7273V37.9091H202.256V34.7273H211.453ZM204.344 31.0682H208.58V45.3068C208.58 45.6979 208.639 46.0028 208.758 46.2216C208.878 46.4337 209.044 46.5829 209.256 46.669C209.474 46.7552 209.726 46.7983 210.011 46.7983C210.21 46.7983 210.409 46.7817 210.608 46.7486C210.807 46.7088 210.959 46.679 211.065 46.6591L211.731 49.8111C211.519 49.8774 211.221 49.9536 210.837 50.0398C210.452 50.1326 209.985 50.1889 209.435 50.2088C208.414 50.2486 207.519 50.1127 206.75 49.8011C205.988 49.4896 205.394 49.0057 204.97 48.3494C204.546 47.6932 204.337 46.8646 204.344 45.8636V31.0682Z" fill="#3B32FF"/>
</svg>
