<svg width="24" height="25" viewBox="0 0 24 25" fill="none" xmlns="http://www.w3.org/2000/svg">
<path d="M24 5.24634V9.92774C23.9638 10.0868 23.8845 10.2007 23.7623 10.2695C23.5181 10.4063 23.1984 10.3018 23.1005 10.0416C23.0742 9.97227 23.0611 9.89259 23.0611 9.80259C23.0627 8.29384 23.0631 6.81227 23.0625 5.3579C23.0625 5.21821 23.0325 5.0729 22.9819 4.94352C22.9766 4.92915 22.9681 4.92727 22.9566 4.9379L14.0995 13.0688C14.0883 13.0791 14.0889 13.0887 14.1014 13.0974L22.8867 19.2334C22.8887 19.2348 22.891 19.2358 22.8934 19.2362C22.8959 19.2367 22.8984 19.2366 22.9008 19.236C22.9031 19.2355 22.9054 19.2344 22.9073 19.2329C22.9093 19.2314 22.9109 19.2295 22.912 19.2273C23.0108 19.0504 23.0603 18.8601 23.0606 18.6563C23.0644 17.281 23.0641 15.8049 23.0597 14.2281C23.0594 14.1349 23.0752 14.051 23.107 13.9763C23.2191 13.7148 23.5528 13.6276 23.7848 13.7771C23.9002 13.8512 23.9719 13.9635 24 14.1141V18.7763C23.9347 19.4673 23.6345 19.9966 23.0995 20.3645C22.7667 20.5937 22.3603 20.7245 21.9661 20.7245C15.2808 20.7216 8.68531 20.7221 2.17969 20.7259C1.93406 20.7259 1.72328 20.7035 1.54734 20.6588C0.672656 20.4362 0.0660938 19.6796 0 18.7731V5.23696C0.0923437 4.1204 0.972188 3.30571 2.09578 3.30571C9.05234 3.3079 15.6252 3.30727 21.8142 3.30384C22.2609 3.30337 22.6472 3.37649 23.0044 3.59821C23.6034 3.9704 23.9353 4.51977 24 5.24634ZM11.01 12.8045C11.4637 13.2202 12.0952 13.2924 12.6492 13.0402C12.7748 12.9831 12.9667 12.836 13.2248 12.5991C16.2305 9.8404 19.2359 7.08102 22.2413 4.32102C22.2528 4.3104 22.2514 4.3018 22.237 4.29524C22.1586 4.26087 22.0769 4.24368 21.9919 4.24368C15.3219 4.24368 8.66203 4.24368 2.01234 4.24368C1.92484 4.24368 1.84047 4.25977 1.75922 4.29196C1.74484 4.29759 1.74344 4.30571 1.755 4.31634C5.03406 7.32696 8.11906 10.1563 11.01 12.8045ZM1.07203 19.2029C1.07457 19.2086 1.07833 19.2136 1.08305 19.2177C1.08777 19.2218 1.09334 19.2247 1.09934 19.2264C1.10535 19.2281 1.11165 19.2284 1.11778 19.2273C1.12392 19.2262 1.12975 19.2238 1.13484 19.2202L9.90188 13.0965C9.91344 13.0887 9.91406 13.0801 9.90375 13.0707L1.05047 4.94259C1.03922 4.93259 1.03047 4.9343 1.02422 4.94774C0.966406 5.0693 0.9375 5.20118 0.9375 5.34337C0.937813 9.75087 0.937656 14.1788 0.937031 18.6273C0.937031 18.8085 0.982031 19.0004 1.07203 19.2029ZM13.1034 13.861C12.2634 14.2526 11.45 14.2081 10.6631 13.7274C10.6534 13.7215 10.6439 13.7218 10.6345 13.7284C7.75859 15.7374 4.87875 17.7488 1.995 19.7626C1.985 19.7695 1.98453 19.7768 1.99359 19.7846C1.99641 19.7871 2.00375 19.7884 2.01562 19.7884C15.3172 19.7824 21.9733 19.7799 21.9839 19.7809C22.0189 19.7843 22.022 19.7757 21.9933 19.7551C21.873 19.6701 18.9992 17.6621 13.372 13.7312C13.3645 13.726 13.3556 13.7233 13.3464 13.7234C13.3373 13.7236 13.3283 13.7266 13.3209 13.7321C13.2541 13.7815 13.1816 13.8245 13.1034 13.861Z" fill="#3B32FF"/>
<path d="M24.0001 11.9706V12.0859C23.9395 12.32 23.8065 12.452 23.6012 12.482C23.1498 12.5472 22.8962 12.0259 23.1943 11.7006C23.3232 11.5595 23.5309 11.5211 23.7086 11.5923C23.8651 11.6548 23.9623 11.7809 24.0001 11.9706Z" fill="#3B32FF"/>
</svg>
