<svg width="72" height="12" viewBox="0 0 72 12" fill="none" xmlns="http://www.w3.org/2000/svg">
<g opacity="0.4">
<path d="M1.29308 0.514893H9.62624C9.97745 0.514893 10.2808 0.643548 10.5362 0.900858C10.7916 1.15817 10.9193 1.46372 10.9193 1.81752V10.2123C10.9193 10.5661 10.7916 10.8716 10.5362 11.1289C10.2808 11.3862 9.97745 11.5149 9.62624 11.5149H1.29308C0.941871 11.5149 0.638557 11.3862 0.383134 11.1289C0.127711 10.8716 0 10.5661 0 10.2123V1.81752C0 1.46372 0.127711 1.15817 0.383134 0.900858C0.638557 0.643548 0.941871 0.514893 1.29308 0.514893Z" fill="#3B32FF"/>
<path d="M31.8334 0.514893H40.1666C40.5178 0.514893 40.8211 0.643548 41.0765 0.900858C41.3319 1.15817 41.4597 1.46372 41.4597 1.81752V10.2123C41.4597 10.5661 41.3319 10.8716 41.0765 11.1289C40.8211 11.3862 40.5178 11.5149 40.1666 11.5149H31.8334C31.4822 11.5149 31.1789 11.3862 30.9235 11.1289C30.6681 10.8716 30.5403 10.5661 30.5403 10.2123V1.81752C30.5403 1.46372 30.6681 1.15817 30.9235 0.900858C31.1789 0.643548 31.4822 0.514893 31.8334 0.514893Z" fill="#3B32FF"/>
<path d="M62.3738 0.514893H70.7069C71.0581 0.514893 71.3614 0.643548 71.6169 0.900858C71.8723 1.15817 72 1.46372 72 1.81752V10.2123C72 10.5661 71.8723 10.8716 71.6169 11.1289C71.3614 11.3862 71.0581 11.5149 70.7069 11.5149H62.3738C62.0226 11.5149 61.7192 11.3862 61.4638 11.1289C61.2084 10.8716 61.0807 10.5661 61.0807 10.2123V1.81752C61.0807 1.46372 61.2084 1.15817 61.4638 0.900858C61.7192 0.643548 62.0226 0.514893 62.3738 0.514893Z" fill="#3B32FF"/>
</g>
</svg>
