<svg width="24" height="25" viewBox="0 0 24 25" fill="none" xmlns="http://www.w3.org/2000/svg">
<g clip-path="url(#clip0_78_1314)">
<path d="M11.9421 0.0146484H12.0616C12.2641 0.0621484 12.3912 0.170586 12.4427 0.339961C12.507 0.55043 12.4315 0.764648 12.2463 0.879492C11.839 1.13355 11.3777 0.684492 11.5807 0.274336C11.6501 0.133711 11.7706 0.0471484 11.9421 0.0146484Z" fill="#3B32FF"/>
<path d="M24 11.762V12.3681C23.9387 14.1552 23.5242 15.8141 22.7564 17.3448C22.0573 18.7388 21.1508 19.9338 20.0367 20.9298C17.8683 22.8688 15.3027 23.8971 12.3398 24.0146H11.6948C9.82922 23.9549 8.07203 23.4977 6.42328 22.6431C6.38016 22.6206 6.36 22.6332 6.31641 22.6435C4.38859 23.0982 2.46063 23.5552 0.5325 24.0146H0.398906C0.181406 23.9624 0.0484375 23.8284 0 23.6124V23.477L1.38422 17.6401C1.38694 17.6295 1.38561 17.6183 1.38047 17.6087C0.521094 15.9602 0.0609375 14.2002 0 12.3287V11.6584C0.116563 8.83711 1.06656 6.36868 2.85 4.25305C4.60406 2.17227 7.03641 0.75149 9.69469 0.235865C9.83 0.209615 9.92984 0.202584 9.99422 0.214771C10.4044 0.292584 10.5033 0.862115 10.1409 1.07071C10.0828 1.10415 10.0206 1.12711 9.95438 1.13961C8.27406 1.45961 6.76078 2.1218 5.41453 3.12618C3.03891 4.89805 1.41141 7.57555 1.035 10.5409C0.731562 12.9302 1.15031 15.1915 2.29125 17.3246C2.3525 17.4396 2.36859 17.5587 2.33953 17.6818C1.92734 19.4212 1.51594 21.1587 1.10531 22.8943C1.10219 22.9071 1.10703 22.912 1.11984 22.9088C2.86797 22.4973 4.61109 22.0845 6.34922 21.6704C6.465 21.6427 6.59437 21.6676 6.69984 21.7252C11.0081 24.0788 16.372 23.2998 19.8384 19.8198C21.9942 17.656 23.1905 14.6495 23.0522 11.5698C22.9462 9.20196 22.1719 7.08415 20.7291 5.21633C20.5331 4.96258 20.3345 4.72852 20.1333 4.51415C18.4555 2.72508 16.4178 1.59774 14.0203 1.13211C13.4086 1.01352 13.5741 0.10274 14.1975 0.216177C17.963 0.902896 21.1533 3.40227 22.8131 6.79227C23.56 8.31727 23.9556 9.97383 24 11.762Z" fill="#3B32FF"/>
<path d="M13.5678 18.2392C10.2083 16.5048 7.6058 13.8737 5.80862 10.5339C5.65737 10.2529 5.53221 9.98966 5.43315 9.74403C4.95549 8.56091 5.14205 7.18419 5.87799 6.13747C6.17377 5.71653 6.56518 5.36591 6.9294 4.99888C7.25987 4.66513 7.75908 4.56856 8.1758 4.78747C8.28487 4.84497 8.40002 4.9345 8.52127 5.05606C9.30721 5.847 10.1071 6.64794 10.9208 7.45888C11.2658 7.80247 11.361 8.31341 11.1233 8.74138C11.0771 8.82481 10.986 8.93481 10.85 9.07138C10.5606 9.36169 10.2733 9.64966 9.98799 9.93528C9.8633 10.06 9.78721 10.1578 9.75971 10.2287C9.70721 10.3631 9.72799 10.5025 9.82205 10.6468C10.7458 12.0631 11.9078 13.2209 13.3081 14.1203C13.5585 14.2811 13.776 14.1583 13.9738 13.9618C14.2641 13.6722 14.5481 13.3858 14.826 13.1026C14.9828 12.9429 15.1246 12.8333 15.2511 12.7736C15.6608 12.5809 16.1375 12.6737 16.4591 12.9967C17.275 13.8161 18.0799 14.6203 18.8736 15.4093C19.2346 15.7679 19.3728 16.2109 19.1492 16.6947C19.1005 16.8 18.9885 16.94 18.8131 17.1147C18.6356 17.2912 18.4649 17.4609 18.3008 17.6237C17.2761 18.64 15.7921 19.0248 14.4064 18.5959C14.1599 18.5197 13.8803 18.4008 13.5678 18.2392ZM14.818 17.7423C15.6322 17.9481 16.506 17.7948 17.1964 17.3251C17.5874 17.0598 17.9197 16.6768 18.2642 16.3384C18.3346 16.269 18.3349 16.1995 18.2652 16.1298L15.7813 13.6464C15.7596 13.6246 15.7301 13.6123 15.6993 13.6121C15.6685 13.6119 15.6388 13.6239 15.6167 13.6454C15.3061 13.9492 14.9989 14.257 14.6952 14.5689C14.4041 14.867 14.1266 15.0643 13.7071 15.1159C13.3771 15.1565 13.0671 15.0831 12.7771 14.8956C11.3024 13.9403 10.0714 12.7195 9.08424 11.2333C8.99674 11.1014 8.92955 10.9743 8.88268 10.8522C8.74112 10.4818 8.78752 10.0393 8.97971 9.69528C9.05471 9.56122 9.18502 9.40356 9.37065 9.22231C9.67596 8.92419 9.97549 8.62544 10.2692 8.32606C10.3327 8.26138 10.3324 8.197 10.2683 8.13294L7.77924 5.64388C7.76813 5.63274 7.75491 5.62391 7.74036 5.61791C7.72581 5.6119 7.7102 5.60883 7.69444 5.60887C7.67867 5.60892 7.66306 5.61207 7.64849 5.61816C7.63393 5.62425 7.62069 5.63315 7.60955 5.64435C7.44737 5.80872 7.26893 5.987 7.07424 6.17919C6.63033 6.617 6.3308 7.09185 6.19252 7.67169C6.02658 8.36763 6.10346 9.03481 6.42315 9.67325C8.08487 12.9925 10.6635 15.6887 13.9546 17.3818C14.3161 17.5678 14.6039 17.6879 14.818 17.7423Z" fill="#3B32FF"/>
</g>
<defs>
<clipPath id="clip0_78_1314">
<rect width="24" height="24" fill="white" transform="translate(0 0.0146484)"/>
</clipPath>
</defs>
</svg>
